<?xml version="1.0" standalone="no"?>
<!DOCTYPE svg PUBLIC "-//W3C//DTD SVG 20010904//EN"
 "http://www.w3.org/TR/2001/REC-SVG-20010904/DTD/svg10.dtd">
<svg version="1.0" xmlns="http://www.w3.org/2000/svg"
 width="875.000000pt" height="592.000000pt" viewBox="0 0 875.000000 592.000000"
 preserveAspectRatio="xMidYMid meet">

<g transform="translate(0.000000,592.000000) scale(0.100000,-0.100000)"
fill="#000000" stroke="none">
<path d="M0 2960 l0 -2960 4375 0 4375 0 0 2960 0 2960 -4375 0 -4375 0 0
-2960z m150 2775 l0 -75 40 0 c29 0 40 -4 40 -15 0 -12 -13 -15 -55 -15 l-55
0 0 90 c0 73 3 90 15 90 12 0 15 -15 15 -75z m221 -5 c34 -91 35 -100 9 -100
-13 0 -20 7 -20 20 0 16 -7 20 -34 20 -26 0 -36 -5 -41 -20 -4 -11 -15 -20
-27 -20 -12 0 -18 5 -15 13 2 6 17 47 33 90 38 102 55 102 95 -3z m88 18 c8
-32 17 -58 20 -58 4 0 14 27 24 60 14 48 21 60 38 60 22 0 23 7 -15 -108 -17
-50 -28 -68 -43 -70 -12 -2 -23 4 -28 15 -10 26 -55 156 -55 160 0 3 10 3 22
1 18 -2 25 -15 37 -60z m202 35 c61 -159 60 -153 38 -153 -12 0 -23 8 -26 20
-4 15 -14 20 -38 20 -24 0 -34 -5 -38 -20 -3 -12 -14 -20 -26 -20 -20 0 -19 3
12 90 34 97 57 116 78 63z m199 0 c19 -25 20 -28 5 -31 -9 -2 -25 4 -36 14
-28 25 -53 8 -57 -40 -4 -43 13 -68 41 -64 28 4 34 28 8 28 -12 0 -21 6 -21
15 0 11 11 15 40 15 39 0 40 -1 40 -35 0 -39 -20 -55 -70 -55 -45 0 -80 39
-80 88 0 84 82 125 130 65z m160 12 c0 -11 -11 -15 -40 -15 -33 0 -40 -3 -40
-20 0 -16 7 -20 35 -20 24 0 35 -5 35 -15 0 -10 -11 -15 -35 -15 -31 0 -35 -3
-35 -25 0 -22 4 -25 40 -25 29 0 40 -4 40 -15 0 -12 -13 -15 -60 -15 l-60 0 0
90 0 90 60 0 c47 0 60 -3 60 -15z m96 -49 c23 -65 24 -65 48 12 15 44 21 52
42 52 24 0 24 -1 24 -90 0 -85 -1 -90 -21 -90 -20 0 -21 4 -16 58 l5 57 -19
-40 c-10 -22 -20 -48 -23 -57 -9 -35 -32 -17 -53 40 l-22 57 0 -57 c-1 -51 -3
-58 -21 -58 -19 0 -20 7 -20 91 l0 90 28 -3 c23 -3 30 -11 48 -62z m319 39
c19 -18 25 -35 25 -65 0 -30 -6 -47 -25 -65 -31 -32 -52 -31 -87 2 -25 24 -28
34 -28 90 l0 63 45 0 c35 0 52 -6 70 -25z m175 10 c0 -11 -12 -15 -45 -15 -38
0 -45 -3 -45 -20 0 -16 7 -20 35 -20 24 0 35 -5 35 -15 0 -10 -11 -15 -35 -15
-31 0 -35 -3 -35 -25 0 -23 4 -25 45 -25 33 0 45 -4 45 -15 0 -12 -13 -15 -60
-15 l-60 0 0 90 0 90 60 0 c47 0 60 -3 60 -15z m188 -5 c40 -38 41 -101 2
-140 -14 -14 -34 -20 -65 -20 l-45 0 0 90 0 90 43 0 c30 0 50 -6 65 -20z m92
-70 c0 -73 -3 -90 -15 -90 -12 0 -15 17 -15 90 0 73 3 90 15 90 12 0 15 -17
15 -90z m107 38 l32 -53 1 53 c0 45 3 52 20 52 19 0 20 -7 20 -90 0 -81 -2
-90 -19 -90 -11 0 -31 20 -52 53 l-34 52 -3 -52 c-2 -37 -7 -53 -17 -53 -10 0
-14 22 -17 90 -3 85 -2 90 17 90 14 0 31 -17 52 -52z m143 17 c0 -33 2 -35 35
-35 33 0 35 2 35 35 0 28 4 35 20 35 19 0 20 -7 20 -90 0 -83 -1 -90 -20 -90
-17 0 -20 7 -20 40 0 39 -1 40 -35 40 -34 0 -35 -1 -35 -40 0 -33 -3 -40 -20
-40 -19 0 -20 7 -20 90 0 83 1 90 20 90 16 0 20 -7 20 -35z m260 20 c0 -11
-11 -15 -40 -15 -33 0 -40 -3 -40 -20 0 -16 7 -20 35 -20 24 0 35 -5 35 -15 0
-10 -11 -15 -35 -15 -31 0 -35 -3 -35 -25 0 -22 4 -25 40 -25 29 0 40 -4 40
-15 0 -12 -13 -15 -60 -15 l-60 0 0 90 0 90 60 0 c47 0 60 -3 60 -15z m60 -75
c0 -83 -1 -90 -20 -90 -19 0 -20 7 -20 90 0 83 1 90 20 90 19 0 20 -7 20 -90z
m141 80 c23 -13 26 -62 4 -80 -13 -10 -12 -17 5 -51 l20 -39 -20 0 c-13 0 -26
12 -37 35 -9 19 -23 35 -30 35 -8 0 -13 -13 -13 -35 0 -28 -4 -35 -20 -35 -19
0 -20 7 -20 90 l0 90 46 0 c25 0 54 -5 65 -10z m170 -9 c20 -16 24 -29 24 -71
0 -42 -4 -55 -24 -71 -68 -55 -146 12 -120 106 16 56 74 73 120 36z m89 -41
c0 -21 -24 -28 -35 -10 -8 14 3 30 21 30 8 0 14 -9 14 -20z m-1512 -148 c-18
-2 -43 -13 -55 -24 l-23 -21 0 78 0 79 55 -54 56 -55 -33 -3z m1512 48 c0 -11
-6 -20 -14 -20 -18 0 -29 16 -21 30 11 18 35 11 35 -10z m5770 -470 c18 -18
20 -33 20 -130 0 -97 -2 -112 -20 -130 -20 -20 -33 -20 -880 -20 -847 0 -860
0 -880 20 -18 18 -20 33 -20 130 0 97 2 112 20 130 20 20 33 20 880 20 847 0
860 0 880 -20z m-6419 -84 c-14 -25 -11 -115 4 -151 7 -18 6 -18 -16 3 -20 19
-24 32 -24 81 0 44 5 64 19 80 24 26 34 19 17 -13z m664 6 c27 -65 22 -123
-12 -157 -22 -23 -26 -13 -8 21 19 37 19 91 0 128 -18 35 -19 37 -1 30 8 -3
18 -13 21 -22z m-1041 2 c24 -9 19 -49 -10 -83 l-26 -31 31 0 c17 0 31 -4 31
-10 0 -5 -22 -10 -50 -10 -59 0 -63 11 -19 56 21 22 29 38 25 50 -6 15 -8 16
-24 0 -22 -19 -32 -20 -32 -3 0 30 37 45 74 31z m136 -4 c0 -5 -13 -10 -30
-10 -20 0 -30 -5 -30 -15 0 -8 8 -15 19 -15 40 0 55 -61 20 -83 -21 -13 -69
-1 -69 18 0 18 12 19 28 3 9 -9 15 -9 23 -1 18 18 3 43 -23 40 -17 -1 -24 4
-26 21 -6 41 5 52 48 52 22 0 40 -4 40 -10z m50 -22 l0 -33 26 33 c14 17 32
32 40 32 20 0 18 -10 -8 -37 l-21 -22 27 -41 c24 -37 25 -40 7 -40 -10 0 -26
11 -35 25 -18 28 -36 25 -36 -6 0 -10 -7 -19 -15 -19 -12 0 -15 14 -15 70 0
56 3 70 15 70 10 0 15 -10 15 -32z m250 -28 l0 -60 30 0 c17 0 30 -4 30 -10 0
-5 -20 -10 -45 -10 l-45 0 0 70 c0 56 3 70 15 70 12 0 15 -13 15 -60z m110
-10 c0 -56 -3 -70 -15 -70 -12 0 -15 14 -15 70 0 56 3 70 15 70 12 0 15 -14
15 -70z m80 25 c7 -25 16 -45 19 -45 4 0 13 19 21 43 11 30 21 43 38 45 21 3
22 0 22 -67 0 -56 -3 -71 -15 -71 -11 0 -15 11 -15 42 0 45 -9 44 -26 -5 -15
-44 -29 -44 -48 3 -9 22 -18 40 -20 40 -2 0 -2 -18 1 -40 5 -33 3 -40 -11 -40
-13 0 -16 12 -16 70 0 62 2 70 19 70 13 0 22 -12 31 -45z m214 29 c33 -32 13
-74 -36 -74 -23 0 -28 -4 -28 -25 0 -16 -6 -25 -15 -25 -12 0 -15 14 -15 70
l0 70 39 0 c23 0 46 -7 55 -16z m136 -4 c58 -58 -21 -158 -82 -103 -23 20 -24
80 -1 105 21 24 58 23 83 -2z m-1682 -382 l-3 -213 -2 203 c-3 201 -4 202 -26
203 -68 4 -566 6 -589 2 l-28 -4 -3 -202 -2 -202 -3 213 -2 212 330 0 330 0
-2 -212z m-28 112 l0 -70 -40 0 c-39 0 -40 1 -40 37 0 61 -20 73 -122 73 l-88
0 0 -55 c0 -30 -4 -55 -10 -55 -5 0 -10 14 -10 32 0 19 -9 41 -22 55 -19 20
-31 23 -105 23 l-83 0 0 -55 0 -55 -40 0 -40 0 0 70 0 70 300 0 300 0 0 -70z
m-380 5 c0 -20 5 -25 25 -25 20 0 25 -5 25 -25 0 -25 -1 -25 -90 -25 l-90 0 0
50 0 50 65 0 c63 0 65 -1 65 -25z m38 13 c18 -18 15 -28 -8 -28 -13 0 -20 7
-20 20 0 23 10 26 28 8z m202 -13 c0 -20 5 -25 25 -25 20 0 25 -5 25 -25 0
-25 -1 -25 -92 -25 l-93 0 3 50 4 50 64 0 c62 0 64 -1 64 -25z m35 5 c18 -19
17 -20 -3 -20 -15 0 -22 6 -22 20 0 11 2 20 3 20 2 0 12 -9 22 -20z m105 -225
l0 -105 -300 0 -300 0 0 105 0 105 300 0 300 0 0 -105z m4668 -2 c-2 -5 -10
-25 -18 -45 -8 -21 -18 -38 -23 -38 -5 0 -6 8 -2 18 19 44 17 60 -6 65 -16 3
-11 5 14 6 21 0 37 -2 35 -6z m177 -29 c20 -49 20 -49 -25 -49 -32 0 -39 3
-34 15 3 8 11 27 16 43 13 36 25 34 43 -9z m55 1 c0 -24 5 -35 14 -35 8 0 18
-4 21 -10 4 -6 -7 -10 -24 -10 -30 0 -31 1 -31 45 0 25 5 45 10 45 6 0 10 -16
10 -35z m56 3 l7 -33 14 33 c20 49 34 38 16 -13 -8 -25 -19 -45 -24 -45 -10 0
-39 60 -39 80 0 24 19 7 26 -22z m124 22 c0 -5 -9 -10 -20 -10 -28 0 -25 -20
3 -21 l22 -2 -22 -4 c-28 -5 -30 -23 -3 -23 11 0 20 -4 20 -10 0 -5 -13 -10
-30 -10 -29 0 -30 2 -30 45 0 43 1 45 30 45 17 0 30 -4 30 -10z m68 -32 c-3
-38 -6 -43 -27 -43 -13 0 -26 6 -29 14 -3 9 1 11 17 6 19 -6 21 -2 21 29 0 20
5 36 11 36 6 0 9 -17 7 -42z m83 -5 l17 -40 -43 1 -42 1 16 43 c8 23 20 41 25
39 5 -2 17 -21 27 -44z m62 25 l16 -23 0 23 c1 43 21 22 21 -23 0 -51 -13 -58
-34 -17 l-15 27 -1 -27 c0 -16 -4 -28 -10 -28 -5 0 -10 20 -10 45 0 50 10 56
33 23z m127 12 c0 -5 -7 -10 -15 -10 -10 0 -15 -11 -15 -35 0 -19 -4 -35 -10
-35 -5 0 -10 14 -10 31 0 19 -7 37 -17 45 -16 12 -13 13 25 14 23 0 42 -4 42
-10z m75 1 c-6 -5 -19 -11 -30 -14 -18 -4 -18 -5 5 -15 24 -10 24 -11 3 -11
-28 -1 -31 -21 -4 -21 11 0 23 -4 26 -10 4 -6 -8 -10 -29 -10 -36 0 -36 0 -36
45 l0 45 37 0 c22 0 33 -4 28 -9z m-766 -32 c-6 -11 -5 -20 1 -24 19 -12 10
-22 -20 -22 -23 0 -27 3 -20 16 4 9 5 23 0 32 -7 13 -3 16 20 16 25 0 27 -3
19 -18z m801 11 c0 -5 -4 -10 -10 -10 -5 0 -10 5 -10 10 0 6 5 10 10 10 6 0
10 -4 10 -10z m-3522 -35 c19 -6 14 -40 -8 -60 -11 -10 -20 -26 -20 -37 0 -29
-25 -21 -37 13 -8 19 -23 34 -42 42 -31 12 -42 41 -18 50 12 5 100 -1 125 -8z
m-1018 -20 c0 -22 -4 -25 -40 -25 -36 0 -40 3 -40 25 0 23 4 25 40 25 36 0 40
-2 40 -25z m860 5 c0 -5 -4 -10 -10 -10 -5 0 -10 5 -10 10 0 6 5 10 10 10 6 0
10 -4 10 -10z m3673 -15 c-7 -21 -13 -19 -13 6 0 11 4 18 10 14 5 -3 7 -12 3
-20z m-1409 -51 c37 -36 66 -68 66 -72 0 -3 -17 -23 -37 -44 -28 -29 -45 -38
-70 -38 -25 0 -33 4 -33 18 0 33 -45 65 -90 65 -45 0 -90 -32 -90 -65 0 -12
-7 -18 -22 -18 -18 0 0 22 87 110 60 61 113 110 117 110 4 0 36 -29 72 -66z
m-958 36 l35 0 -22 -40 -23 -40 -133 0 c-73 0 -133 3 -133 8 0 4 9 21 20 37
19 29 23 30 107 36 49 3 94 4 101 2 8 -2 29 -3 48 -3z m-3095 -122 c17 -57 33
-111 36 -120 4 -17 -20 -18 -397 -18 -377 0 -401 1 -397 18 3 9 19 63 36 120
l32 102 329 0 329 0 32 -102z m2804 72 c-15 -28 -19 -30 -75 -30 -48 0 -61 4
-70 19 -5 11 -10 22 -10 25 0 3 37 7 83 9 45 1 83 4 85 5 1 1 -4 -11 -13 -28z
m-1809 -15 c24 -25 24 -25 22 -202 l-3 -178 -125 0 -125 0 -3 178 c-2 177 -2
177 22 202 23 23 33 25 106 25 73 0 83 -2 106 -25z m3605 8 c1 -5 2 -24 2 -43
2 -31 -1 -35 -22 -35 -13 0 -26 5 -28 12 -3 7 4 10 19 7 20 -4 21 -3 6 8 -15
11 -15 13 0 25 15 11 15 12 -6 13 -13 0 -20 4 -17 10 7 12 45 14 46 3z m184
-20 c0 -12 4 -25 8 -29 12 -12 -14 -34 -39 -34 -22 0 -24 4 -24 46 0 44 1 45
28 42 20 -2 27 -9 27 -25z m95 13 c28 -35 -11 -93 -47 -70 -36 22 -23 84 17
84 10 0 23 -7 30 -14z m86 -33 c1 -43 -9 -56 -20 -28 -3 8 -10 15 -16 15 -5 0
-10 -7 -10 -15 0 -8 -4 -15 -10 -15 -5 0 -10 21 -10 46 0 45 0 45 33 42 30 -3
32 -5 33 -45z m88 30 c4 -9 2 -21 -3 -26 -7 -7 -7 -16 0 -29 7 -12 6 -18 -1
-18 -6 0 -13 7 -16 15 -4 8 -10 15 -15 15 -5 0 -9 -7 -9 -15 0 -8 -4 -15 -10
-15 -5 0 -10 20 -10 45 0 43 1 45 29 45 18 0 31 -6 35 -17z m36 -28 c0 -25 -4
-45 -10 -45 -5 0 -10 20 -10 45 0 25 5 45 10 45 6 0 10 -20 10 -45z m80 35 c0
-5 -9 -10 -20 -10 -28 0 -25 -20 3 -21 l22 -2 -22 -4 c-15 -3 -23 -12 -23 -24
0 -10 -4 -19 -10 -19 -5 0 -10 20 -10 45 0 43 1 45 30 45 17 0 30 -4 30 -10z
m58 -17 c5 -16 13 -35 16 -43 5 -12 -2 -15 -34 -15 -45 0 -45 0 -25 49 18 43
30 45 43 9z m86 21 c10 -4 16 -18 16 -39 0 -34 -13 -45 -51 -45 -16 0 -19 7
-19 45 0 47 12 55 54 39z m105 -16 c13 -36 -2 -63 -34 -63 -32 0 -47 27 -34
63 6 15 17 22 34 22 17 0 28 -7 34 -22z m87 -25 c0 -43 -9 -56 -20 -28 -3 8
-10 15 -16 15 -5 0 -10 -7 -10 -15 0 -8 -4 -15 -10 -15 -5 0 -10 21 -10 46 0
45 0 45 33 42 30 -3 32 -5 33 -45z m-837 6 c-6 -11 -5 -20 1 -24 19 -12 10
-22 -20 -22 -23 0 -27 3 -20 16 4 9 5 23 0 32 -7 13 -3 16 20 16 25 0 27 -3
19 -18z m-2749 -9 c0 -5 -9 -10 -20 -10 -11 0 -20 5 -20 10 0 6 9 10 20 10 11
0 20 -4 20 -10z m860 -125 c0 -70 4 -115 10 -115 6 0 10 45 10 115 l0 115 140
0 140 0 0 -145 0 -145 -139 0 c-137 0 -140 0 -144 23 l-4 22 -8 -22 c-6 -20
-14 -23 -61 -23 l-54 0 0 145 0 145 55 0 55 0 0 -115z m2760 85 c0 -11 -4 -20
-9 -20 -5 0 -7 9 -4 20 3 11 7 20 9 20 2 0 4 -9 4 -20z m-1617 1 c13 -5 27
-19 30 -30 5 -22 -7 -29 -19 -10 -3 6 -17 8 -33 4 -25 -6 -25 -6 -6 9 20 14
20 15 -5 25 -32 13 -1 15 33 2z m-1958 -17 c35 -23 45 -64 45 -185 l0 -109
-105 0 -105 0 0 120 c0 119 0 119 31 155 26 29 38 35 70 35 22 0 50 -7 64 -16z
m2165 -154 l0 -100 -240 0 -240 0 0 100 0 100 240 0 240 0 0 -100z m475 90
c-3 -5 -14 -10 -23 -11 -12 0 -10 -3 6 -10 33 -13 27 -54 -7 -54 -13 0 -26 5
-28 12 -3 7 4 9 18 6 16 -4 20 -2 17 8 -3 8 -12 13 -22 11 -11 -2 -16 4 -16
23 0 21 4 25 31 25 17 0 28 -4 24 -10z m185 -4 c10 -13 7 -15 -17 -13 -22 2
-28 -2 -28 -18 0 -16 6 -20 28 -18 24 2 27 0 17 -13 -19 -21 -49 -17 -61 10
-21 46 29 89 61 52z m84 -26 c9 -22 16 -42 16 -43 0 -1 -18 -2 -40 -2 -22 0
-40 2 -40 6 0 16 31 79 39 79 5 0 16 -18 25 -40z m46 -5 c0 -25 -4 -45 -10
-45 -5 0 -10 20 -10 45 0 25 5 45 10 45 6 0 10 -20 10 -45z m45 35 c5 -8 11
-7 21 1 19 16 30 4 15 -15 -9 -11 -10 -20 -1 -35 16 -31 25 -26 39 19 15 52
32 51 52 -3 l15 -42 -57 -2 c-45 -1 -59 3 -64 15 -6 16 -7 16 -16 0 -15 -27
-30 -22 -18 6 8 17 8 29 0 45 -12 21 2 31 14 11z m-296 -31 c-6 -11 -5 -20 1
-24 19 -12 10 -22 -20 -22 -23 0 -27 3 -20 16 4 9 5 23 0 32 -7 13 -3 16 20
16 25 0 27 -3 19 -18z m-4619 -59 l0 -30 -129 0 c-71 0 -136 -3 -144 -6 -10
-3 -14 0 -14 11 2 14 -14 16 -123 16 -109 0 -125 -2 -123 -16 0 -11 -4 -14
-14 -11 -8 3 -73 6 -144 6 l-129 0 0 30 0 30 410 0 410 0 0 -30z m5080 10 c0
-11 -4 -20 -9 -20 -5 0 -7 9 -4 20 3 11 7 20 9 20 2 0 4 -9 4 -20z m-532 -72
c19 -19 14 -30 -10 -23 l-23 6 23 -17 c27 -20 28 -40 4 -53 -13 -7 -23 -6 -30
1 -18 18 -14 27 11 22 l22 -5 -22 17 c-13 9 -23 22 -23 28 0 13 20 36 30 36 3
0 11 -5 18 -12z m81 -12 c8 -10 6 -19 -9 -39 l-20 -26 22 -4 c14 -3 7 -5 -16
-6 l-39 -1 20 23 c37 41 39 51 8 43 -25 -6 -27 -5 -16 8 16 20 35 20 50 2z
m81 4 c0 -5 -10 -10 -22 -11 l-23 0 23 -10 c33 -13 27 -54 -7 -54 -13 0 -26 6
-29 14 -3 10 2 11 18 6 16 -5 21 -4 18 6 -3 8 -12 13 -22 11 -17 -3 -20 6 -10
32 7 17 54 22 54 6z m76 -14 c9 -38 -4 -68 -29 -64 -23 3 -35 43 -23 74 9 24
45 17 52 -10z m69 -21 c0 -33 -4 -41 -22 -43 -25 -4 -38 26 -29 64 5 19 12 25
29 22 18 -3 22 -9 22 -43z m80 0 c0 -36 -2 -40 -25 -40 -20 0 -26 6 -28 28 -5
42 5 59 30 55 20 -3 23 -9 23 -43z m113 33 c29 -29 7 -78 -35 -78 -21 0 -23 5
-23 45 0 40 2 45 23 45 13 0 28 -5 35 -12z m52 -33 c0 -25 -4 -45 -10 -45 -5
0 -10 20 -10 45 0 25 5 45 10 45 6 0 10 -20 10 -45z m54 18 l15 -28 1 28 c0
15 5 27 10 27 6 0 10 -20 10 -45 0 -50 -10 -56 -33 -22 l-16 22 0 -22 c-1 -44
-21 -23 -21 22 0 51 13 58 34 18z m76 7 c0 -13 7 -20 20 -20 13 0 20 7 20 20
0 11 5 20 10 20 6 0 10 -20 10 -45 0 -25 -4 -45 -10 -45 -5 0 -10 7 -10 15 0
8 -9 15 -20 15 -11 0 -20 -7 -20 -15 0 -8 -4 -15 -10 -15 -5 0 -10 20 -10 45
0 25 5 45 10 45 6 0 10 -9 10 -20z m135 11 c-6 -5 -19 -11 -30 -14 -18 -4 -18
-5 5 -15 24 -10 24 -11 3 -11 -28 -1 -31 -21 -4 -21 11 0 23 -4 26 -10 4 -6
-8 -10 -29 -10 -36 0 -36 0 -36 45 l0 45 37 0 c22 0 33 -4 28 -9z m35 -36 c0
-25 -4 -45 -10 -45 -5 0 -10 20 -10 45 0 25 5 45 10 45 6 0 10 -20 10 -45z
m84 28 c4 -9 2 -21 -3 -26 -7 -7 -7 -16 0 -29 7 -12 6 -18 -1 -18 -6 0 -13 7
-16 15 -4 8 -10 15 -15 15 -5 0 -9 -7 -9 -15 0 -8 -4 -15 -10 -15 -5 0 -10 20
-10 45 0 43 1 45 29 45 18 0 31 -6 35 -17z m86 3 c28 -35 -11 -93 -47 -70 -36
22 -23 84 17 84 10 0 23 -7 30 -14z m138 -5 c3 -10 -2 -11 -19 -6 l-24 6 24
-19 c15 -12 22 -25 18 -36 -8 -20 -41 -21 -58 0 -11 13 -9 14 17 9 l29 -6 -28
21 c-22 18 -25 25 -16 37 15 17 51 14 57 -6z m42 -16 c0 -24 5 -35 15 -35 10
0 15 11 15 35 0 19 5 35 11 35 16 0 6 -72 -12 -83 -29 -18 -49 -1 -49 43 0 22
5 40 10 40 6 0 10 -16 10 -35z m118 -7 c-3 -38 -6 -43 -27 -43 -13 0 -26 6
-29 14 -3 9 1 11 17 6 19 -6 21 -2 21 29 0 20 5 36 11 36 6 0 9 -17 7 -42z
m92 28 c28 -35 -11 -93 -47 -70 -36 22 -23 84 17 84 10 0 23 -7 30 -14z m40
-16 c0 -5 -4 -10 -10 -10 -5 0 -10 5 -10 10 0 6 5 10 10 10 6 0 10 -4 10 -10z
m-377 -17 c-7 -2 -19 -2 -25 0 -7 3 -2 5 12 5 14 0 19 -2 13 -5z m368 -56 c-8
-8 -11 -7 -11 4 0 20 13 34 18 19 3 -7 -1 -17 -7 -23z m1429 -547 c18 -18 20
-33 20 -130 0 -97 -2 -112 -20 -130 -20 -20 -33 -20 -880 -20 -847 0 -860 0
-880 20 -18 18 -20 33 -20 130 0 97 2 112 20 130 20 20 33 20 880 20 847 0
860 0 880 -20z m-6419 -84 c-14 -25 -11 -115 4 -151 7 -18 6 -18 -16 3 -20 19
-24 32 -24 81 0 44 5 64 19 80 24 26 34 19 17 -13z m664 6 c27 -65 22 -123
-12 -157 -22 -23 -27 -12 -9 24 20 37 20 88 1 121 -8 14 -14 28 -15 32 0 13
28 -3 35 -20z m-1025 -1 c0 -5 -12 -11 -27 -13 -35 -4 -43 -28 -9 -28 23 0 46
-24 46 -49 0 -35 -67 -54 -90 -26 -18 21 -3 32 22 16 14 -8 24 -9 31 -2 16 16
0 42 -25 39 -26 -3 -28 0 -28 42 0 28 2 30 40 30 22 0 40 -4 40 -9z m110 -10
c5 -11 10 -34 10 -51 0 -44 -17 -70 -45 -70 -28 0 -55 34 -55 70 0 58 66 95
90 51z m60 -13 l0 -33 26 33 c14 17 32 32 40 32 20 0 18 -10 -8 -37 l-21 -22
27 -41 c24 -37 25 -40 7 -40 -10 0 -26 11 -35 25 -18 28 -36 25 -36 -6 0 -10
-7 -19 -15 -19 -12 0 -15 14 -15 70 0 56 3 70 15 70 10 0 15 -10 15 -32z m250
-28 l0 -60 30 0 c17 0 30 -4 30 -10 0 -5 -20 -10 -45 -10 l-45 0 0 70 c0 56 3
70 15 70 12 0 15 -13 15 -60z m110 -10 c0 -56 -3 -70 -15 -70 -12 0 -15 14
-15 70 0 56 3 70 15 70 12 0 15 -14 15 -70z m80 25 c7 -25 16 -45 19 -45 4 0
13 19 21 43 11 30 21 43 38 45 21 3 22 0 22 -67 0 -56 -3 -71 -15 -71 -11 0
-15 11 -15 42 0 45 -9 44 -26 -5 -15 -44 -29 -44 -48 3 -9 22 -18 40 -20 40
-2 0 -2 -18 1 -40 5 -33 3 -40 -11 -40 -13 0 -16 12 -16 70 0 62 2 70 19 70
13 0 22 -12 31 -45z m214 29 c33 -32 13 -74 -36 -74 -23 0 -28 -4 -28 -25 0
-16 -6 -25 -15 -25 -12 0 -15 14 -15 70 l0 70 39 0 c23 0 46 -7 55 -16z m136
-4 c58 -58 -21 -158 -82 -103 -23 20 -24 80 -1 105 21 24 58 23 83 -2z m-1682
-382 l-3 -213 -2 203 c-3 201 -4 202 -26 203 -68 4 -566 6 -589 2 l-28 -4 -3
-202 -2 -202 -3 213 -2 212 330 0 330 0 -2 -212z m-28 112 l0 -70 -40 0 c-39
0 -40 1 -40 37 0 61 -20 73 -122 73 l-88 0 0 -55 c0 -30 -4 -55 -10 -55 -5 0
-10 14 -10 32 0 19 -9 41 -22 55 -19 20 -31 23 -105 23 l-83 0 0 -55 0 -55
-40 0 -40 0 0 70 0 70 300 0 300 0 0 -70z m-380 5 c0 -20 5 -25 25 -25 20 0
25 -5 25 -25 0 -25 -1 -25 -90 -25 l-90 0 0 50 0 50 65 0 c63 0 65 -1 65 -25z
m38 13 c18 -18 15 -28 -8 -28 -13 0 -20 7 -20 20 0 23 10 26 28 8z m202 -13
c0 -20 5 -25 25 -25 20 0 25 -5 25 -25 0 -25 -1 -25 -92 -25 l-93 0 3 50 4 50
64 0 c62 0 64 -1 64 -25z m35 5 c18 -19 17 -20 -3 -20 -15 0 -22 6 -22 20 0
11 2 20 3 20 2 0 12 -9 22 -20z m105 -225 l0 -105 -300 0 -300 0 0 105 0 105
300 0 300 0 0 -105z m4650 -40 c0 -25 -4 -45 -10 -45 -5 0 -10 16 -10 35 0 21
-5 35 -12 35 -9 0 -8 4 2 10 26 17 30 11 30 -35z m92 10 c4 -39 -7 -68 -19
-49 -5 7 -16 13 -25 15 -17 4 -17 6 2 37 25 41 37 41 42 -3z m182 -5 c9 -22
16 -42 16 -43 0 -1 -18 -2 -40 -2 -22 0 -40 2 -40 6 0 16 31 79 39 79 5 0 16
-18 25 -40z m46 5 c0 -28 4 -35 20 -35 11 0 20 -4 20 -10 0 -5 -13 -10 -30
-10 -29 0 -30 2 -30 45 0 25 5 45 10 45 6 0 10 -16 10 -35z m67 3 l11 -33 7
33 c4 17 13 32 21 32 10 0 10 -9 -3 -45 -8 -25 -20 -45 -27 -45 -6 0 -18 20
-27 45 -12 34 -13 45 -4 45 7 0 17 -15 22 -32z m123 22 c0 -5 -9 -10 -20 -10
-25 0 -27 -20 -2 -21 16 -1 16 -2 0 -6 -24 -6 -23 -23 2 -23 11 0 20 -4 20
-10 0 -5 -13 -10 -30 -10 -29 0 -30 2 -30 45 0 43 1 45 30 45 17 0 30 -4 30
-10z m68 -32 c-3 -38 -6 -43 -27 -43 -13 0 -26 6 -29 14 -3 9 1 11 17 6 19 -6
21 -2 21 29 0 20 5 36 11 36 6 0 9 -17 7 -42z m77 6 c20 -49 20 -49 -25 -49
-32 0 -39 3 -34 15 3 8 11 27 16 43 13 36 25 34 43 -9z m69 9 l15 -28 1 28 c0
15 5 27 10 27 6 0 10 -20 10 -45 0 -50 -10 -56 -33 -22 l-16 22 0 -22 c-1 -44
-21 -23 -21 22 0 51 13 58 34 18z m126 17 c0 -5 -7 -10 -15 -10 -10 0 -15 -11
-15 -35 0 -19 -4 -35 -10 -35 -5 0 -10 16 -10 35 0 24 -5 35 -15 35 -8 0 -15
5 -15 10 0 6 18 10 40 10 22 0 40 -4 40 -10z m70 0 c0 -5 -9 -10 -20 -10 -28
0 -25 -20 3 -21 l22 -2 -22 -4 c-28 -5 -30 -23 -3 -23 11 0 20 -4 20 -10 0 -5
-13 -10 -30 -10 -29 0 -30 2 -30 45 0 43 1 45 30 45 17 0 30 -4 30 -10z m-762
-30 c-9 -14 -9 -22 1 -34 16 -19 1 -22 -17 -4 -9 9 -12 9 -12 0 0 -7 -4 -12
-8 -12 -4 0 -8 15 -8 34 0 29 3 33 28 34 24 1 26 -1 16 -18z m-2800 -25 c19
-6 14 -40 -8 -60 -11 -10 -20 -26 -20 -37 0 -29 -25 -21 -37 13 -8 19 -23 34
-42 42 -31 12 -42 41 -18 50 12 5 100 -1 125 -8z m-1018 -20 c0 -22 -4 -25
-40 -25 -36 0 -40 3 -40 25 0 23 4 25 40 25 36 0 40 -2 40 -25z m860 5 c0 -5
-4 -10 -10 -10 -5 0 -10 5 -10 10 0 6 5 10 10 10 6 0 10 -4 10 -10z m3750 -10
c0 -11 -4 -20 -9 -20 -5 0 -7 9 -4 20 3 11 7 20 9 20 2 0 4 -9 4 -20z m-1486
-56 c37 -36 66 -68 66 -72 0 -3 -17 -23 -37 -44 -28 -29 -45 -38 -70 -38 -25
0 -33 4 -33 18 0 33 -45 65 -90 65 -45 0 -90 -32 -90 -65 0 -12 -7 -18 -22
-18 -18 0 0 22 87 110 60 61 113 110 117 110 4 0 36 -29 72 -66z m-958 36 l35
0 -22 -40 -23 -40 -133 0 c-73 0 -133 3 -133 8 0 4 9 21 20 37 19 29 23 30
107 36 49 3 94 4 101 2 8 -2 29 -3 48 -3z m-3095 -122 c17 -57 33 -111 36
-120 4 -17 -20 -18 -397 -18 -377 0 -401 1 -397 18 3 9 19 63 36 120 l32 102
329 0 329 0 32 -102z m2804 72 c-15 -28 -19 -30 -75 -30 -48 0 -61 4 -70 19
-5 11 -10 22 -10 25 0 3 37 7 83 9 45 1 83 4 85 5 1 1 -4 -11 -13 -28z m-1809
-15 c24 -25 24 -25 22 -202 l-3 -178 -125 0 -125 0 -3 178 c-2 177 -2 177 22
202 23 23 33 25 106 25 73 0 83 -2 106 -25z m3591 1 c-16 -13 -16 -14 4 -19
31 -8 23 -52 -11 -52 -20 0 -26 6 -28 28 -4 32 13 57 37 57 14 -1 14 -2 -2
-14z m198 -13 c0 -12 4 -25 8 -29 12 -12 -14 -34 -39 -34 -22 0 -24 4 -24 46
0 44 1 45 28 42 20 -2 27 -9 27 -25z m95 13 c28 -35 -11 -93 -47 -70 -36 22
-23 84 17 84 10 0 23 -7 30 -14z m86 -33 c1 -43 -9 -56 -20 -28 -3 8 -10 15
-16 15 -5 0 -10 -7 -10 -15 0 -8 -4 -15 -10 -15 -5 0 -10 21 -10 46 0 45 0 45
33 42 30 -3 32 -5 33 -45z m88 30 c4 -9 2 -21 -3 -26 -7 -7 -7 -16 0 -29 7
-12 6 -18 -1 -18 -6 0 -13 7 -16 15 -4 8 -10 15 -15 15 -5 0 -9 -7 -9 -15 0
-8 -4 -15 -10 -15 -5 0 -10 20 -10 45 0 43 1 45 29 45 18 0 31 -6 35 -17z m36
-28 c0 -25 -4 -45 -10 -45 -5 0 -10 20 -10 45 0 25 5 45 10 45 6 0 10 -20 10
-45z m80 35 c0 -5 -9 -10 -20 -10 -28 0 -25 -20 3 -21 l22 -2 -22 -4 c-15 -3
-23 -12 -23 -24 0 -10 -4 -19 -10 -19 -5 0 -10 20 -10 45 0 43 1 45 30 45 17
0 30 -4 30 -10z m64 -30 c9 -22 16 -42 16 -43 0 -1 -18 -2 -40 -2 -22 0 -40 2
-40 6 0 16 31 79 39 79 5 0 16 -18 25 -40z m80 34 c10 -4 16 -18 16 -39 0 -34
-13 -45 -51 -45 -16 0 -19 7 -19 45 0 47 12 55 54 39z m105 -16 c13 -36 -2
-63 -34 -63 -32 0 -47 27 -34 63 6 15 17 22 34 22 17 0 28 -7 34 -22z m87 -25
c0 -43 -9 -56 -20 -28 -3 8 -10 15 -16 15 -5 0 -10 -7 -10 -15 0 -8 -4 -15
-10 -15 -5 0 -10 21 -10 46 0 45 0 45 33 42 30 -3 32 -5 33 -45z m-837 6 c-6
-11 -5 -20 1 -24 19 -12 10 -22 -20 -22 -23 0 -27 3 -20 16 4 9 5 23 0 32 -7
13 -3 16 20 16 25 0 27 -3 19 -18z m-2749 -9 c0 -5 -9 -10 -20 -10 -11 0 -20
5 -20 10 0 6 9 10 20 10 11 0 20 -4 20 -10z m860 -125 c0 -70 4 -115 10 -115
6 0 10 45 10 115 l0 115 140 0 140 0 0 -145 0 -145 -139 0 c-137 0 -140 0
-144 23 l-4 22 -8 -22 c-6 -20 -14 -23 -61 -23 l-54 0 0 145 0 145 55 0 55 0
0 -115z m2760 85 c0 -11 -4 -20 -9 -20 -5 0 -7 9 -4 20 3 11 7 20 9 20 2 0 4
-9 4 -20z m-1617 1 c13 -5 27 -19 30 -30 5 -22 -7 -29 -19 -10 -3 6 -17 8 -33
4 -25 -6 -25 -6 -6 9 20 14 20 15 -5 25 -32 13 -1 15 33 2z m-1958 -17 c35
-23 45 -64 45 -185 l0 -109 -105 0 -105 0 0 120 c0 119 0 119 31 155 26 29 38
35 70 35 22 0 50 -7 64 -16z m2165 -154 l0 -100 -240 0 -240 0 0 100 0 100
240 0 240 0 0 -100z m460 55 c0 -25 -4 -45 -10 -45 -5 0 -10 16 -10 35 0 21
-5 35 -12 35 -9 0 -8 4 2 10 26 17 30 11 30 -35z m88 33 c30 -30 -2 -93 -36
-71 -21 13 -27 50 -12 69 15 17 32 18 48 2z m193 -4 c12 -15 10 -16 -19 -10
-30 7 -32 6 -32 -19 0 -25 2 -26 32 -19 29 6 31 5 19 -10 -26 -31 -71 -13 -71
29 0 42 45 60 71 29z m80 -27 l15 -44 -41 1 -42 1 14 43 c8 23 20 42 27 42 6
0 18 -20 27 -43z m49 -2 c0 -25 -4 -45 -10 -45 -5 0 -10 20 -10 45 0 25 5 45
10 45 6 0 10 -20 10 -45z m44 33 c5 -10 7 -10 12 0 3 6 12 12 20 12 12 0 12
-4 4 -20 -11 -21 -5 -60 10 -60 4 0 15 18 24 40 9 22 20 40 25 40 7 0 41 -69
41 -83 0 -8 -108 -3 -119 6 -11 9 -15 9 -18 0 -3 -7 -11 -13 -19 -13 -12 0
-12 3 1 23 13 21 13 25 -1 45 -13 19 -13 22 0 22 8 0 17 -6 20 -12z m-294 -23
c-8 -10 -8 -19 0 -34 12 -23 1 -28 -18 -9 -9 9 -12 9 -12 0 0 -7 -4 -12 -8
-12 -4 0 -8 15 -8 34 0 30 3 33 29 34 23 1 26 -2 17 -13z m460 5 c0 -5 -4 -10
-10 -10 -5 0 -10 5 -10 10 0 6 5 10 10 10 6 0 10 -4 10 -10z m-5160 -70 l0
-30 -129 0 c-71 0 -136 -3 -144 -6 -10 -3 -14 0 -14 11 2 14 -14 16 -123 16
-109 0 -125 -2 -123 -16 0 -11 -4 -14 -14 -11 -8 3 -73 6 -144 6 l-129 0 0 30
0 30 410 0 410 0 0 -30z m5151 -3 c-8 -8 -11 -7 -11 4 0 20 13 34 18 19 3 -7
-1 -17 -7 -23z m-603 -59 c19 -19 14 -30 -10 -23 l-23 6 23 -17 c27 -20 28
-40 4 -53 -13 -7 -23 -6 -30 1 -18 18 -14 27 11 22 l22 -5 -22 17 c-13 9 -23
22 -23 28 0 13 20 36 30 36 3 0 11 -5 18 -12z m87 -8 c-3 -5 -14 -10 -23 -11
-12 0 -11 -3 6 -9 23 -10 28 -26 13 -48 -10 -16 -42 -13 -48 5 -3 7 4 9 18 6
16 -4 20 -2 17 8 -3 8 -12 13 -22 11 -11 -2 -16 4 -16 23 0 21 4 25 31 25 17
0 28 -4 24 -10z m70 -35 c0 -36 -2 -40 -25 -40 -20 0 -26 6 -28 28 -5 42 5 59
30 55 20 -3 23 -9 23 -43z m81 21 c9 -38 -4 -68 -29 -64 -23 3 -35 43 -23 74
9 24 45 17 52 -10z m69 -21 c0 -36 -2 -40 -25 -40 -20 0 -26 6 -28 28 -5 42 5
59 30 55 20 -3 23 -9 23 -43z m80 0 c0 -36 -2 -40 -25 -40 -20 0 -26 6 -28 28
-5 42 5 59 30 55 20 -3 23 -9 23 -43z m113 33 c29 -29 7 -78 -35 -78 -21 0
-23 5 -23 45 0 40 2 45 23 45 13 0 28 -5 35 -12z m52 -33 c0 -25 -4 -45 -10
-45 -5 0 -10 20 -10 45 0 25 5 45 10 45 6 0 10 -20 10 -45z m54 18 l15 -28 1
28 c0 15 5 27 10 27 6 0 10 -20 10 -45 0 -50 -10 -56 -33 -22 l-16 22 0 -22
c-1 -44 -21 -23 -21 22 0 51 13 58 34 18z m76 7 c0 -13 7 -20 20 -20 13 0 20
7 20 20 0 11 5 20 10 20 6 0 10 -20 10 -45 0 -25 -4 -45 -10 -45 -5 0 -10 7
-10 15 0 8 -9 15 -20 15 -11 0 -20 -7 -20 -15 0 -8 -4 -15 -10 -15 -5 0 -10
20 -10 45 0 25 5 45 10 45 6 0 10 -9 10 -20z m135 11 c-6 -5 -19 -11 -30 -14
-18 -4 -18 -5 5 -15 24 -10 24 -11 3 -11 -28 -1 -31 -21 -4 -21 11 0 23 -4 26
-10 4 -6 -8 -10 -29 -10 -36 0 -36 0 -36 45 l0 45 37 0 c22 0 33 -4 28 -9z
m35 -36 c0 -25 -4 -45 -10 -45 -5 0 -10 20 -10 45 0 25 5 45 10 45 6 0 10 -20
10 -45z m84 28 c4 -9 2 -21 -3 -26 -7 -7 -7 -16 0 -29 7 -12 6 -18 -1 -18 -6
0 -13 7 -16 15 -4 8 -10 15 -15 15 -5 0 -9 -7 -9 -15 0 -8 -4 -15 -10 -15 -5
0 -10 20 -10 45 0 43 1 45 29 45 18 0 31 -6 35 -17z m86 3 c28 -35 -11 -93
-47 -70 -36 22 -23 84 17 84 10 0 23 -7 30 -14z m138 -5 c3 -10 -2 -11 -19 -6
l-24 6 24 -19 c15 -12 22 -25 18 -36 -8 -20 -41 -21 -58 0 -11 13 -9 14 17 9
l29 -6 -28 21 c-22 18 -25 25 -16 37 15 17 51 14 57 -6z m42 -16 c0 -24 5 -35
15 -35 10 0 15 11 15 35 0 19 5 35 11 35 16 0 6 -72 -12 -83 -29 -18 -49 -1
-49 43 0 22 5 40 10 40 6 0 10 -16 10 -35z m118 -7 c-3 -38 -6 -43 -27 -43
-13 0 -26 6 -29 14 -3 9 1 11 17 6 19 -6 21 -2 21 29 0 20 5 36 11 36 6 0 9
-17 7 -42z m93 21 c8 -16 8 -28 0 -45 -18 -41 -71 -25 -71 21 0 44 50 61 71
24z m39 -9 c0 -5 -4 -10 -10 -10 -5 0 -10 5 -10 10 0 6 5 10 10 10 6 0 10 -4
10 -10z m-377 -17 c-7 -2 -19 -2 -25 0 -7 3 -2 5 12 5 14 0 19 -2 13 -5z m368
-56 c-8 -8 -11 -7 -11 4 0 20 13 34 18 19 3 -7 -1 -17 -7 -23z m1429 -547 c18
-18 20 -33 20 -130 0 -97 -2 -112 -20 -130 -20 -20 -33 -20 -880 -20 -847 0
-860 0 -880 20 -18 18 -20 33 -20 130 0 97 2 112 20 130 20 20 33 20 880 20
847 0 860 0 880 -20z m-6305 -83 c-8 -12 -15 -42 -15 -67 0 -25 7 -55 15 -67
9 -13 11 -24 6 -28 -18 -11 -46 47 -46 95 0 48 28 106 46 95 5 -4 3 -15 -6
-28z m665 1 c11 -18 20 -49 20 -68 0 -39 -35 -104 -50 -95 -6 4 -4 14 5 28 19
27 19 106 0 133 -12 18 -11 34 2 34 2 0 12 -15 23 -32z m-1160 -58 c0 -56 -3
-70 -15 -70 -11 0 -15 12 -15 50 0 38 -4 50 -15 50 -34 0 0 36 38 39 4 1 7
-30 7 -69z m128 58 c7 -7 12 -33 12 -58 0 -51 -13 -70 -46 -70 -27 0 -54 35
-54 70 0 54 55 91 88 58z m116 -10 c32 -45 8 -118 -38 -118 -33 0 -46 19 -46
70 0 25 5 51 12 58 19 19 55 14 72 -10z m66 -5 l1 -28 22 28 c13 15 31 27 40
27 16 0 15 -4 -7 -32 l-24 -33 24 -35 c29 -42 11 -57 -21 -16 -26 33 -35 33
-35 1 0 -16 -6 -25 -15 -25 -12 0 -15 14 -15 70 0 56 3 70 15 70 10 0 15 -10
15 -27z m242 -30 c3 -57 3 -58 36 -61 51 -5 37 -22 -18 -22 l-50 0 0 70 c0 54
3 70 15 70 10 0 15 -15 17 -57z m108 -13 c0 -56 -3 -70 -15 -70 -12 0 -15 14
-15 70 0 56 3 70 15 70 12 0 15 -14 15 -70z m89 20 l15 -45 20 48 c13 31 26
47 38 47 16 0 18 -9 18 -70 0 -56 -3 -70 -15 -70 -11 0 -15 12 -16 43 l-1 42
-15 -42 c-8 -24 -20 -43 -27 -43 -6 0 -19 19 -28 43 l-17 42 0 -42 c-1 -31 -5
-43 -16 -43 -12 0 -15 15 -15 71 0 67 1 70 22 67 15 -2 26 -15 37 -48z m216
26 c23 -34 5 -66 -35 -66 -25 0 -30 -4 -30 -25 0 -16 -6 -25 -15 -25 -12 0
-15 14 -15 70 l0 70 40 0 c31 0 43 -5 55 -24z m127 7 c23 -20 24 -80 1 -105
-36 -40 -103 -6 -103 52 0 57 62 90 102 53z m-1794 -385 l-3 -213 -2 203 c-3
201 -4 202 -26 203 -68 4 -566 6 -589 2 l-28 -4 -3 -202 -2 -202 -3 213 -2
212 330 0 330 0 -2 -212z m-28 112 l0 -70 -40 0 c-39 0 -40 1 -40 37 0 61 -20
73 -122 73 l-88 0 0 -55 c0 -30 -4 -55 -10 -55 -5 0 -10 14 -10 32 0 19 -9 41
-22 55 -19 20 -31 23 -105 23 l-83 0 0 -55 0 -55 -40 0 -40 0 0 70 0 70 300 0
300 0 0 -70z m-380 5 c0 -20 5 -25 25 -25 20 0 25 -5 25 -25 0 -25 -1 -25 -90
-25 l-90 0 0 50 0 50 65 0 c63 0 65 -1 65 -25z m38 13 c18 -18 15 -28 -8 -28
-13 0 -20 7 -20 20 0 23 10 26 28 8z m202 -13 c0 -20 5 -25 25 -25 20 0 25 -5
25 -25 0 -25 -1 -25 -92 -25 l-93 0 3 50 4 50 64 0 c62 0 64 -1 64 -25z m35 5
c18 -19 17 -20 -3 -20 -15 0 -22 6 -22 20 0 11 2 20 3 20 2 0 12 -9 22 -20z
m105 -225 l0 -105 -300 0 -300 0 0 105 0 105 300 0 300 0 0 -105z m4667 -10
c3 -9 -2 -24 -11 -34 -20 -22 -20 -28 2 -34 9 -3 2 -5 -15 -6 -38 -1 -41 8
-13 34 28 25 25 38 -7 30 -23 -5 -25 -4 -14 9 17 20 50 21 58 1z m63 -30 c0
-25 -4 -45 -10 -45 -5 0 -10 16 -10 35 0 21 -5 35 -12 35 -9 0 -8 4 2 10 26
17 30 11 30 -35z m194 5 c9 -22 16 -42 16 -43 0 -1 -18 -2 -40 -2 -22 0 -40 2
-40 6 0 16 31 79 39 79 5 0 16 -18 25 -40z m46 5 c0 -28 4 -35 20 -35 11 0 20
-4 20 -10 0 -5 -13 -10 -30 -10 -29 0 -30 2 -30 45 0 25 5 45 10 45 6 0 10
-16 10 -35z m67 3 l10 -33 7 33 c4 17 14 32 21 32 11 0 11 -8 -2 -45 -8 -25
-20 -45 -27 -45 -6 0 -18 20 -27 45 -12 34 -13 45 -4 45 7 0 16 -15 22 -32z
m123 22 c0 -5 -9 -10 -20 -10 -25 0 -27 -20 -2 -21 16 -1 16 -2 0 -6 -24 -6
-23 -23 2 -23 11 0 20 -4 20 -10 0 -5 -13 -10 -30 -10 -29 0 -30 2 -30 45 0
43 1 45 30 45 17 0 30 -4 30 -10z m68 -32 c-3 -38 -6 -43 -27 -43 -13 0 -26 6
-29 14 -3 9 1 11 17 6 19 -6 21 -2 21 29 0 20 5 36 11 36 6 0 9 -17 7 -42z
m77 6 c20 -49 20 -49 -25 -49 -32 0 -39 3 -34 15 3 8 11 27 16 43 13 36 25 34
43 -9z m69 9 l15 -28 1 28 c0 15 5 27 10 27 6 0 10 -20 10 -45 0 -50 -10 -56
-33 -22 l-16 22 0 -22 c-1 -44 -21 -23 -21 22 0 51 13 58 34 18z m126 17 c0
-5 -7 -10 -15 -10 -10 0 -15 -11 -15 -35 0 -19 -4 -35 -10 -35 -5 0 -10 16
-10 35 0 24 -5 35 -15 35 -8 0 -15 5 -15 10 0 6 18 10 40 10 22 0 40 -4 40
-10z m70 0 c0 -5 -9 -10 -20 -10 -28 0 -25 -20 3 -21 l22 -2 -22 -4 c-28 -5
-30 -23 -3 -23 11 0 20 -4 20 -10 0 -5 -13 -10 -30 -10 -29 0 -30 2 -30 45 0
43 1 45 30 45 17 0 30 -4 30 -10z m-760 -25 c-8 -10 -8 -19 0 -34 12 -23 1
-28 -18 -9 -9 9 -12 9 -12 0 0 -7 -4 -12 -8 -12 -4 0 -8 15 -8 34 0 30 3 33
29 34 23 1 26 -2 17 -13z m-2802 -30 c19 -6 14 -40 -8 -60 -11 -10 -20 -26
-20 -37 0 -29 -25 -21 -37 13 -8 19 -23 34 -42 42 -31 12 -42 41 -18 50 12 5
100 -1 125 -8z m-1018 -20 c0 -22 -4 -25 -40 -25 -36 0 -40 3 -40 25 0 23 4
25 40 25 36 0 40 -2 40 -25z m860 5 c0 -5 -4 -10 -10 -10 -5 0 -10 5 -10 10 0
6 5 10 10 10 6 0 10 -4 10 -10z m3750 -10 c0 -11 -4 -20 -9 -20 -5 0 -7 9 -4
20 3 11 7 20 9 20 2 0 4 -9 4 -20z m-1486 -56 c37 -36 66 -68 66 -72 0 -3 -17
-23 -37 -44 -28 -29 -45 -38 -70 -38 -25 0 -33 4 -33 18 0 33 -45 65 -90 65
-45 0 -90 -32 -90 -65 0 -12 -7 -18 -22 -18 -18 0 0 22 87 110 60 61 113 110
117 110 4 0 36 -29 72 -66z m-958 36 l35 0 -22 -40 -23 -40 -133 0 c-73 0
-133 3 -133 8 0 4 9 21 20 37 19 29 23 30 107 36 49 3 94 4 101 2 8 -2 29 -3
48 -3z m-3095 -122 c17 -57 33 -111 36 -120 4 -17 -20 -18 -397 -18 -377 0
-401 1 -397 18 3 9 19 63 36 120 l32 102 329 0 329 0 32 -102z m2804 72 c-15
-28 -19 -30 -75 -30 -48 0 -61 4 -70 19 -5 11 -10 22 -10 25 0 3 37 7 83 9 45
1 83 4 85 5 1 1 -4 -11 -13 -28z m-1809 -15 c24 -25 24 -25 22 -202 l-3 -178
-125 0 -125 0 -3 178 c-2 177 -2 177 22 202 23 23 33 25 106 25 73 0 83 -2
106 -25z m3604 0 c15 -18 5 -64 -16 -72 -24 -9 -29 6 -8 22 19 14 18 14 -2 15
-25 0 -37 23 -21 39 15 15 32 14 47 -4z m185 -12 c0 -12 4 -25 8 -29 12 -12
-14 -34 -39 -34 -22 0 -24 4 -24 46 0 44 1 45 28 42 20 -2 27 -9 27 -25z m95
13 c28 -35 -11 -93 -47 -70 -36 22 -23 84 17 84 10 0 23 -7 30 -14z m86 -33
c1 -43 -9 -56 -20 -28 -3 8 -10 15 -16 15 -5 0 -10 -7 -10 -15 0 -8 -4 -15
-10 -15 -5 0 -10 21 -10 46 0 45 0 45 33 42 30 -3 32 -5 33 -45z m91 31 c3 -8
1 -20 -5 -26 -8 -8 -8 -17 -1 -30 7 -12 6 -18 -1 -18 -6 0 -13 7 -16 15 -4 8
-10 15 -15 15 -5 0 -9 -7 -9 -15 0 -8 -4 -15 -10 -15 -5 0 -10 20 -10 45 0 43
1 45 30 45 19 0 33 -6 37 -16z m33 -29 c0 -25 -4 -45 -10 -45 -5 0 -10 20 -10
45 0 25 5 45 10 45 6 0 10 -20 10 -45z m80 35 c0 -5 -9 -10 -20 -10 -28 0 -25
-20 3 -21 l22 -2 -22 -4 c-15 -3 -23 -12 -23 -24 0 -10 -4 -19 -10 -19 -5 0
-10 20 -10 45 0 43 1 45 30 45 17 0 30 -4 30 -10z m64 -30 c9 -22 16 -42 16
-43 0 -1 -18 -2 -40 -2 -22 0 -40 2 -40 6 0 16 31 79 39 79 5 0 16 -18 25 -40z
m80 34 c10 -4 16 -18 16 -39 0 -34 -13 -45 -51 -45 -16 0 -19 7 -19 45 0 47
12 55 54 39z m105 -16 c13 -36 -2 -63 -34 -63 -32 0 -47 27 -34 63 6 15 17 22
34 22 17 0 28 -7 34 -22z m87 -25 c0 -43 -9 -56 -20 -28 -3 8 -10 15 -16 15
-5 0 -10 -7 -10 -15 0 -8 -4 -15 -10 -15 -5 0 -10 21 -10 46 0 45 0 45 33 42
30 -3 32 -5 33 -45z m-837 6 c-6 -11 -5 -20 1 -24 19 -12 10 -22 -20 -22 -23
0 -27 3 -20 16 4 9 5 23 0 32 -7 13 -3 16 20 16 25 0 27 -3 19 -18z m-2749 -9
c0 -5 -9 -10 -20 -10 -11 0 -20 5 -20 10 0 6 9 10 20 10 11 0 20 -4 20 -10z
m860 -125 c0 -70 4 -115 10 -115 6 0 10 45 10 115 l0 115 140 0 140 0 0 -145
0 -145 -139 0 c-137 0 -140 0 -144 23 l-4 22 -8 -22 c-6 -20 -14 -23 -61 -23
l-54 0 0 145 0 145 55 0 55 0 0 -115z m2760 85 c0 -11 -4 -20 -9 -20 -5 0 -7
9 -4 20 3 11 7 20 9 20 2 0 4 -9 4 -20z m-1617 1 c13 -5 27 -19 30 -30 5 -22
-7 -29 -19 -10 -3 6 -17 8 -33 4 -25 -6 -25 -6 -6 9 20 14 20 15 -5 25 -32 13
-1 15 33 2z m-1958 -17 c35 -23 45 -64 45 -185 l0 -109 -105 0 -105 0 0 120
c0 119 0 119 31 155 26 29 38 35 70 35 22 0 50 -7 64 -16z m2165 -154 l0 -100
-240 0 -240 0 0 100 0 100 240 0 240 0 0 -100z m460 55 c0 -25 -4 -45 -10 -45
-5 0 -10 16 -10 35 0 21 -5 35 -12 35 -9 0 -8 4 2 10 26 17 30 11 30 -35z
m100 40 c0 -3 -10 -10 -22 -15 -16 -6 -18 -9 -7 -9 20 -1 31 -24 22 -47 -6
-17 -44 -15 -50 3 -3 7 4 9 18 6 16 -4 20 -2 17 8 -3 8 -12 13 -22 11 -11 -2
-16 4 -16 23 0 21 5 25 30 25 17 0 30 -2 30 -5z m178 -13 c3 -9 -3 -11 -22 -6
-23 5 -26 3 -26 -21 0 -24 3 -26 26 -21 19 5 25 3 22 -6 -6 -18 -36 -22 -53
-8 -18 15 -19 52 -3 68 16 16 50 12 56 -6z m83 -25 l15 -44 -41 1 -42 1 14 43
c8 23 20 42 27 42 6 0 18 -20 27 -43z m49 -2 c0 -25 -4 -45 -10 -45 -5 0 -10
20 -10 45 0 25 5 45 10 45 6 0 10 -20 10 -45z m44 33 c5 -10 7 -10 12 0 3 6
12 12 20 12 12 0 12 -4 4 -20 -11 -21 -5 -60 10 -60 4 0 15 18 24 40 9 22 20
40 25 40 7 0 41 -69 41 -83 0 -8 -108 -3 -119 6 -11 9 -15 9 -18 0 -3 -7 -11
-13 -19 -13 -12 0 -12 3 1 23 13 21 13 25 -1 45 -13 19 -13 22 0 22 8 0 17 -6
20 -12z m-296 -28 c-9 -14 -9 -22 1 -34 16 -19 1 -22 -17 -4 -9 9 -12 9 -12 0
0 -7 -4 -12 -8 -12 -4 0 -8 15 -8 34 0 29 3 33 28 34 24 1 26 -1 16 -18z m462
10 c0 -5 -4 -10 -10 -10 -5 0 -10 5 -10 10 0 6 5 10 10 10 6 0 10 -4 10 -10z
m-5160 -70 l0 -30 -129 0 c-71 0 -136 -3 -144 -6 -10 -3 -14 0 -14 11 2 14
-14 16 -123 16 -109 0 -125 -2 -123 -16 0 -11 -4 -14 -14 -11 -8 3 -73 6 -144
6 l-129 0 0 30 0 30 410 0 410 0 0 -30z m5151 -3 c-8 -8 -11 -7 -11 4 0 20 13
34 18 19 3 -7 -1 -17 -7 -23z m-603 -59 c19 -19 14 -30 -10 -23 l-23 6 23 -17
c27 -20 28 -40 4 -53 -13 -7 -23 -6 -30 1 -18 18 -14 27 11 22 l22 -5 -22 17
c-13 9 -23 22 -23 28 0 13 20 36 30 36 3 0 11 -5 18 -12z m72 -43 c0 -25 -4
-45 -10 -45 -5 0 -10 16 -10 35 0 21 -5 35 -12 35 -9 0 -8 4 2 10 26 17 30 11
30 -35z m85 0 c0 -36 -2 -40 -25 -40 -20 0 -26 6 -28 28 -5 42 5 59 30 55 20
-3 23 -9 23 -43z m81 21 c9 -38 -4 -68 -29 -64 -23 3 -35 43 -23 74 9 24 45
17 52 -10z m69 -21 c0 -33 -4 -41 -22 -43 -25 -4 -38 26 -29 64 5 19 12 25 29
22 18 -3 22 -9 22 -43z m80 0 c0 -36 -2 -40 -25 -40 -20 0 -26 6 -28 28 -5 42
5 59 30 55 20 -3 23 -9 23 -43z m81 21 c9 -38 -4 -68 -29 -64 -23 3 -35 43
-23 74 9 24 45 17 52 -10z m115 3 c16 -31 -3 -69 -36 -69 -23 0 -25 4 -25 45
0 41 2 45 25 45 15 0 29 -8 36 -21z m39 -24 c0 -25 -4 -45 -10 -45 -5 0 -10
20 -10 45 0 25 5 45 10 45 6 0 10 -20 10 -45z m60 18 l14 -28 4 28 c6 44 22
31 22 -18 0 -52 -10 -56 -39 -17 l-20 27 -1 -27 c0 -16 -4 -28 -10 -28 -5 0
-10 20 -10 45 0 52 19 61 40 18z m80 7 c0 -11 7 -20 15 -20 8 0 15 9 15 20 0
11 5 20 10 20 6 0 10 -20 10 -45 0 -25 -4 -45 -10 -45 -5 0 -10 7 -10 15 0 8
-7 15 -15 15 -8 0 -15 -7 -15 -15 0 -8 -4 -15 -10 -15 -5 0 -10 20 -10 45 0
25 5 45 10 45 6 0 10 -9 10 -20z m130 11 c0 -5 -10 -11 -22 -14 -23 -4 -23 -4
2 -15 24 -10 24 -11 3 -11 -28 -1 -31 -21 -3 -21 11 0 20 -4 20 -10 0 -5 -13
-10 -30 -10 -29 0 -30 2 -30 45 0 43 1 45 30 45 17 0 30 -4 30 -9z m40 -36 c0
-25 -4 -45 -10 -45 -5 0 -10 20 -10 45 0 25 5 45 10 45 6 0 10 -20 10 -45z
m76 -2 c1 -43 -9 -56 -20 -28 -3 8 -10 15 -16 15 -5 0 -10 -7 -10 -15 0 -8 -4
-15 -10 -15 -5 0 -10 21 -10 46 0 45 0 45 33 42 30 -3 32 -5 33 -45z m93 25
c13 -36 -2 -63 -34 -63 -32 0 -47 27 -34 63 6 15 17 22 34 22 17 0 28 -7 34
-22z m139 4 c3 -9 -4 -11 -25 -7 l-28 6 28 -16 c37 -21 33 -50 -7 -50 -16 0
-31 6 -34 13 -3 9 4 11 25 7 26 -6 27 -5 9 9 -10 8 -24 17 -29 19 -6 2 -8 11
-4 21 8 20 58 19 65 -2z m42 -17 c0 -24 5 -35 15 -35 10 0 15 11 15 35 0 19 5
35 10 35 14 0 12 -64 -2 -78 -18 -18 -46 -14 -58 7 -15 30 -13 71 5 71 10 0
15 -11 15 -35z m118 -7 c-3 -38 -6 -43 -27 -43 -13 0 -26 6 -29 14 -3 9 1 11
17 6 19 -6 21 -2 21 29 0 20 5 36 11 36 6 0 9 -17 7 -42z m91 20 c13 -36 -2
-63 -34 -63 -32 0 -47 27 -34 63 6 15 17 22 34 22 17 0 28 -7 34 -22z m41 -8
c0 -5 -4 -10 -10 -10 -5 0 -10 5 -10 10 0 6 5 10 10 10 6 0 10 -4 10 -10z
m-377 -17 c-7 -2 -19 -2 -25 0 -7 3 -2 5 12 5 14 0 19 -2 13 -5z m370 -48 c-8
-22 -22 -18 -16 5 3 11 9 17 14 15 4 -3 6 -12 2 -20z m1350 -557 l22 -23 -453
-3 c-248 -1 -656 -1 -905 0 l-452 3 23 23 22 22 860 0 860 0 23 -22z"/>
<path d="M312 5730 c-7 -19 -6 -26 5 -28 22 -5 27 5 16 30 l-11 23 -10 -25z"/>
<path d="M622 5730 c-7 -19 -6 -26 5 -28 22 -5 27 5 16 30 l-11 23 -10 -25z"/>
<path d="M1360 5720 c0 -51 3 -60 18 -60 28 0 42 20 42 60 0 40 -14 60 -42 60
-15 0 -18 -9 -18 -60z"/>
<path d="M1730 5720 c0 -58 1 -61 22 -58 14 2 26 14 32 31 13 37 -3 81 -32 85
-21 3 -22 0 -22 -58z"/>
<path d="M2530 5755 c0 -27 26 -35 47 -14 17 17 4 39 -23 39 -19 0 -24 -5 -24
-25z"/>
<path d="M2689 5753 c-16 -42 0 -88 31 -88 51 0 53 106 2 113 -16 3 -25 -4
-33 -25z"/>
<path d="M7550 5045 l0 -46 75 3 c41 2 75 4 75 5 0 15 -35 83 -42 83 -5 0 -16
-17 -25 -38 -12 -33 -19 -38 -39 -34 -20 4 -24 10 -24 38 0 19 -4 34 -10 34
-5 0 -10 -20 -10 -45z m115 -5 c3 -5 1 -10 -4 -10 -6 0 -11 5 -11 10 0 6 2 10
4 10 3 0 8 -4 11 -10z"/>
<path d="M7700 5085 c0 -19 35 -85 45 -85 10 0 35 60 35 84 0 17 -20 3 -28
-21 l-10 -28 -11 28 c-9 22 -31 39 -31 22z"/>
<path d="M7799 5047 l-15 -44 43 1 c34 1 42 4 37 16 -3 8 -11 27 -16 43 -14
39 -31 33 -49 -16z m36 -7 c3 -5 1 -10 -4 -10 -6 0 -11 5 -11 10 0 6 2 10 4
10 3 0 8 -4 11 -10z"/>
<path d="M7880 5046 c0 -25 5 -46 10 -46 6 0 10 7 10 15 0 8 4 15 9 15 5 0 11
-7 15 -15 11 -29 22 -15 22 28 -1 40 -3 42 -33 45 -33 3 -33 3 -33 -42z m50
14 c0 -5 -7 -10 -15 -10 -8 0 -15 5 -15 10 0 6 7 10 15 10 8 0 15 -4 15 -10z"/>
<path d="M2610 5065 c0 -18 5 -25 20 -25 25 0 38 29 19 41 -25 15 -39 10 -39
-16z"/>
<path d="M2752 5078 c-7 -7 -12 -24 -12 -38 0 -35 18 -52 42 -39 11 6 18 21
18 39 0 34 -29 57 -48 38z"/>
<path d="M544 4600 c0 -52 1 -74 3 -47 2 26 2 68 0 95 -2 26 -3 4 -3 -48z"/>
<path d="M584 4600 c0 -52 1 -74 3 -47 2 26 2 68 0 95 -2 26 -3 4 -3 -48z"/>
<path d="M624 4600 c0 -52 1 -74 3 -47 2 26 2 68 0 95 -2 26 -3 4 -3 -48z"/>
<path d="M664 4600 c0 -52 1 -74 3 -47 2 26 2 68 0 95 -2 26 -3 4 -3 -48z"/>
<path d="M704 4600 c0 -52 1 -74 3 -47 2 26 2 68 0 95 -2 26 -3 4 -3 -48z"/>
<path d="M730 4606 c0 -47 5 -88 10 -91 6 -4 10 27 10 84 0 54 -4 91 -10 91
-6 0 -10 -35 -10 -84z"/>
<path d="M770 4606 c0 -47 5 -88 10 -91 6 -4 10 27 10 84 0 54 -4 91 -10 91
-6 0 -10 -35 -10 -84z"/>
<path d="M810 4599 c0 -57 4 -88 10 -84 6 3 10 44 10 91 0 49 -4 84 -10 84 -6
0 -10 -37 -10 -91z"/>
<path d="M850 4599 c0 -57 4 -88 10 -84 6 3 10 44 10 91 0 49 -4 84 -10 84 -6
0 -10 -37 -10 -91z"/>
<path d="M894 4600 c0 -52 1 -74 3 -47 2 26 2 68 0 95 -2 26 -3 4 -3 -48z"/>
<path d="M934 4600 c0 -52 1 -74 3 -47 2 26 2 68 0 95 -2 26 -3 4 -3 -48z"/>
<path d="M974 4600 c0 -52 1 -74 3 -47 2 26 2 68 0 95 -2 26 -3 4 -3 -48z"/>
<path d="M1014 4600 c0 -52 1 -74 3 -47 2 26 2 68 0 95 -2 26 -3 4 -3 -48z"/>
<path d="M1054 4600 c0 -52 1 -74 3 -47 2 26 2 68 0 95 -2 26 -3 4 -3 -48z"/>
<path d="M5916 4565 c-3 -8 -1 -15 4 -15 6 0 10 7 10 15 0 8 -2 15 -4 15 -2 0
-6 -7 -10 -15z"/>
<path d="M6296 4565 c-3 -8 -1 -15 4 -15 6 0 10 7 10 15 0 8 -2 15 -4 15 -2 0
-6 -7 -10 -15z"/>
<path d="M5100 4475 c-40 -41 -33 -61 8 -22 16 15 32 27 36 27 11 0 86 -75 86
-86 0 -4 -12 -20 -27 -36 -14 -15 -23 -31 -20 -35 9 -8 77 56 77 72 0 14 -102
115 -116 115 -5 0 -25 -16 -44 -35z"/>
<path d="M5120 4435 c0 -8 -4 -14 -9 -12 -8 2 -11 -3 -11 -20 0 -3 9 2 20 12
22 20 26 35 10 35 -5 0 -10 -7 -10 -15z"/>
<path d="M5166 4371 c-11 -12 -14 -21 -7 -26 10 -6 15 1 12 18 0 4 6 7 14 7 8
0 15 5 15 10 0 16 -15 12 -34 -9z"/>
<path d="M475 4458 c-22 -59 -61 -208 -55 -208 4 0 17 36 30 80 13 44 25 78
27 76 4 -4 -5 -43 -33 -138 -5 -17 17 -18 355 -18 199 0 361 1 361 3 0 1 -9
36 -20 76 -12 40 -19 75 -17 77 2 3 14 -32 27 -76 13 -44 26 -80 30 -80 5 0
-7 48 -24 108 l-32 107 -322 3 c-253 2 -324 0 -327 -10z m642 -23 c2 -11 0
-14 -3 -7 -8 17 -624 18 -624 0 0 -6 -3 -9 -6 -5 -4 3 -4 13 0 22 5 13 43 15
318 13 304 -3 313 -4 315 -23z m-550 -12 c-4 -3 -2 -12 4 -20 9 -10 3 -13 -34
-13 -40 0 -45 2 -40 20 4 15 14 20 41 20 19 0 32 -3 29 -7z m123 -13 c0 -16
-7 -20 -33 -20 -26 0 -33 4 -33 20 0 16 7 20 33 20 26 0 33 -4 33 -20z m83 0
c4 -17 0 -20 -34 -20 -26 0 -39 4 -39 13 0 20 10 27 41 27 18 0 28 -6 32 -20z
m120 0 c4 -17 0 -20 -33 -20 -33 0 -37 3 -33 20 4 14 14 20 33 20 19 0 29 -6
33 -20z m83 0 c0 -16 -7 -20 -33 -20 -26 0 -33 4 -33 20 0 16 7 20 33 20 26 0
33 -4 33 -20z m127 0 c5 -18 0 -20 -40 -20 -37 0 -43 3 -34 13 6 8 8 17 4 20
-3 4 10 7 29 7 27 0 37 -5 41 -20z m-86 4 c-3 -3 -12 -4 -19 -1 -8 3 -5 6 6 6
11 1 17 -2 13 -5z m-337 -59 c0 -23 -4 -25 -41 -25 -34 0 -39 3 -30 13 14 17
4 27 -25 27 -28 0 -42 -19 -23 -31 9 -6 -3 -9 -33 -9 -40 0 -48 3 -48 18 0 10
3 22 7 25 3 4 48 7 100 7 93 0 93 0 93 -25z m220 0 c0 -23 -3 -25 -47 -24 -27
0 -42 3 -35 6 25 10 12 33 -18 33 -30 0 -43 -23 -17 -33 6 -3 -12 -6 -42 -6
-44 -1 -52 2 -47 15 3 9 6 20 6 25 0 5 45 9 100 9 l100 0 0 -25z m214 9 c11
-30 6 -34 -41 -34 -31 0 -43 3 -34 9 19 12 5 31 -23 31 -29 0 -39 -10 -25 -27
9 -10 4 -13 -29 -13 -34 0 -40 3 -44 25 l-5 25 97 0 c80 0 99 -3 104 -16z
m-571 -74 c-5 -17 0 -20 27 -20 27 0 32 3 27 20 -4 17 0 20 34 20 35 0 39 -3
39 -25 l0 -25 -105 0 c-95 0 -105 2 -105 18 0 27 9 32 51 32 32 0 36 -3 32
-20z m230 0 c-5 -17 0 -20 27 -20 27 0 32 3 27 20 -5 18 0 20 38 20 38 0 43
-3 47 -25 l5 -25 -119 0 c-105 0 -119 2 -114 16 3 9 6 20 6 25 0 5 20 9 44 9
39 0 44 -2 39 -20z m230 0 c-5 -17 0 -20 27 -20 27 0 32 3 27 20 -4 17 0 20
33 20 36 0 50 -12 50 -41 0 -5 -47 -9 -105 -9 -58 0 -105 4 -105 9 0 5 -3 16
-6 25 -5 13 2 16 39 16 40 0 45 -2 40 -20z"/>
<path d="M2100 4357 c0 -78 3 -97 18 -110 10 -10 26 -17 35 -17 15 0 17 12 17
88 0 93 -8 115 -47 127 -23 6 -23 5 -23 -88z"/>
<path d="M1930 4195 l0 -135 120 0 120 0 0 80 c0 71 -2 80 -18 80 -31 0 -54
25 -61 66 l-6 39 -78 3 -77 3 0 -136z m140 89 c0 -37 15 -60 50 -74 29 -12 30
-15 30 -71 l0 -59 -100 0 -100 0 0 115 0 115 60 0 c58 0 60 -1 60 -26z"/>
<path d="M1976 4254 c-9 -22 12 -46 38 -42 15 2 21 10 21 28 0 20 -6 26 -26
28 -18 2 -29 -3 -33 -14z m44 -15 c0 -5 -7 -9 -15 -9 -15 0 -20 12 -9 23 8 8
24 -1 24 -14z"/>
<path d="M1974 4160 c0 -18 7 -20 76 -20 69 0 76 2 76 20 0 18 -7 20 -76 20
-69 0 -76 -2 -76 -20z"/>
<path d="M1975 4120 c3 -5 21 -10 40 -10 19 0 37 5 40 10 4 6 -12 10 -40 10
-28 0 -44 -4 -40 -10z"/>
<path d="M5910 4420 c0 -5 5 -10 10 -10 6 0 10 5 10 10 0 6 -4 10 -10 10 -5 0
-10 -4 -10 -10z"/>
<path d="M5910 4390 c0 -5 7 -10 16 -10 8 0 12 5 9 10 -3 6 -10 10 -16 10 -5
0 -9 -4 -9 -10z"/>
<path d="M5990 4405 c0 -20 4 -26 18 -23 9 2 17 12 17 23 0 11 -8 21 -17 23
-14 3 -18 -3 -18 -23z"/>
<path d="M6080 4420 c0 -5 7 -10 15 -10 8 0 15 5 15 10 0 6 -7 10 -15 10 -8 0
-15 -4 -15 -10z"/>
<path d="M6170 4420 c0 -5 4 -10 9 -10 6 0 13 5 16 10 3 6 -1 10 -9 10 -9 0
-16 -4 -16 -10z"/>
<path d="M6360 4400 c0 -5 5 -10 10 -10 6 0 10 5 10 10 0 6 -4 10 -10 10 -5 0
-10 -4 -10 -10z"/>
<path d="M6440 4405 c0 -16 6 -25 15 -25 9 0 15 9 15 25 0 16 -6 25 -15 25 -9
0 -15 -9 -15 -25z"/>
<path d="M6530 4405 c0 -16 6 -25 15 -25 9 0 15 9 15 25 0 16 -6 25 -15 25 -9
0 -15 -9 -15 -25z"/>
<path d="M6620 4420 c0 -5 7 -10 15 -10 8 0 15 5 15 10 0 6 -7 10 -15 10 -8 0
-15 -4 -15 -10z"/>
<path d="M3857 4364 c-13 -14 -7 -73 10 -90 16 -15 16 -17 0 -29 -21 -15 -12
-25 25 -25 28 0 39 15 16 23 -10 3 -10 9 0 29 8 13 12 40 10 59 -2 28 -8 35
-28 37 -14 2 -29 0 -33 -4z m43 -49 c0 -16 -6 -25 -15 -25 -9 0 -15 9 -15 25
0 16 6 25 15 25 9 0 15 -9 15 -25z"/>
<path d="M4047 4342 c-21 -23 -22 -36 -2 -28 11 4 15 -2 15 -24 0 -17 5 -30
10 -30 6 0 10 11 10 24 0 13 5 26 11 28 9 3 9 10 0 26 -14 27 -23 27 -44 4z"/>
<path d="M4131 4339 c-8 -14 -9 -24 -3 -28 5 -3 11 -14 13 -24 2 -10 9 -18 14
-18 6 0 12 8 14 18 2 10 8 21 13 24 12 7 -11 49 -27 49 -6 0 -16 -10 -24 -21z"/>
<path d="M4045 4230 c3 -5 21 -10 40 -10 19 0 37 5 40 10 4 6 -12 10 -40 10
-28 0 -44 -4 -40 -10z"/>
<path d="M4145 4230 c3 -5 13 -10 21 -10 8 0 14 5 14 10 0 6 -9 10 -21 10 -11
0 -17 -4 -14 -10z"/>
<path d="M3032 4273 c-31 -12 -55 -103 -32 -118 6 -4 10 8 10 29 0 38 28 76
55 76 24 0 55 -38 55 -68 0 -17 -10 -38 -25 -52 -21 -20 -28 -22 -50 -12 -29
14 -34 -2 -6 -18 28 -15 36 -13 70 16 72 60 8 182 -77 147z"/>
<path d="M4824 4267 c-3 -8 -4 -47 -2 -88 l3 -74 53 -3 c31 -2 52 1 52 7 0 6
-20 11 -45 11 l-45 0 0 70 0 70 45 0 c25 0 45 5 45 10 0 16 -100 12 -106 -3z"/>
<path d="M4985 4255 c-19 -18 -25 -35 -25 -65 0 -56 34 -90 90 -90 56 0 90 34
90 90 0 56 -34 90 -90 90 -30 0 -47 -6 -65 -25z m43 -6 c-22 -12 -24 -57 -3
-65 8 -4 15 -14 14 -23 0 -10 -2 -11 -6 -3 -7 17 -23 15 -23 -3 0 -7 8 -19 18
-24 9 -6 11 -11 5 -11 -23 0 -53 39 -53 70 0 31 30 70 53 70 6 0 4 -5 -5 -11z
m72 -9 c11 -11 20 -33 20 -50 0 -31 -30 -70 -52 -70 -7 0 -5 5 5 11 21 12 23
57 2 65 -8 4 -15 14 -14 23 0 10 2 11 6 4 7 -18 23 -16 23 2 0 7 -8 19 -17 24
-10 6 -12 11 -5 11 6 0 21 -9 32 -20z m-63 -32 c-3 -8 -6 -5 -6 6 -1 11 2 17
5 13 3 -3 4 -12 1 -19z m30 -50 c-3 -8 -6 -5 -6 6 -1 11 2 17 5 13 3 -3 4 -12
1 -19z"/>
<path d="M5170 4271 c0 -6 20 -11 45 -11 l45 0 0 -70 0 -70 -45 0 c-25 0 -45
-5 -45 -11 0 -6 21 -9 53 -7 l52 3 0 85 0 85 -52 3 c-32 2 -53 -1 -53 -7z"/>
<path d="M4880 4230 c0 -5 5 -10 10 -10 6 0 10 5 10 10 0 6 -4 10 -10 10 -5 0
-10 -4 -10 -10z"/>
<path d="M4915 4230 c3 -5 8 -10 11 -10 2 0 4 5 4 10 0 6 -5 10 -11 10 -5 0
-7 -4 -4 -10z"/>
<path d="M5170 4229 c0 -5 5 -7 10 -4 6 3 10 8 10 11 0 2 -4 4 -10 4 -5 0 -10
-5 -10 -11z"/>
<path d="M5200 4230 c0 -5 5 -10 10 -10 6 0 10 5 10 10 0 6 -4 10 -10 10 -5 0
-10 -4 -10 -10z"/>
<path d="M4880 4150 c0 -5 5 -10 10 -10 6 0 10 5 10 10 0 6 -4 10 -10 10 -5 0
-10 -4 -10 -10z"/>
<path d="M4910 4150 c0 -5 5 -10 10 -10 6 0 10 5 10 10 0 6 -4 10 -10 10 -5 0
-10 -4 -10 -10z"/>
<path d="M5170 4150 c0 -5 5 -10 10 -10 6 0 10 5 10 10 0 6 -4 10 -10 10 -5 0
-10 -4 -10 -10z"/>
<path d="M5200 4150 c0 -5 5 -10 10 -10 6 0 10 5 10 10 0 6 -4 10 -10 10 -5 0
-10 -4 -10 -10z"/>
<path d="M6000 4240 c0 -5 5 -10 10 -10 6 0 10 5 10 10 0 6 -4 10 -10 10 -5 0
-10 -4 -10 -10z"/>
<path d="M6216 4245 c-3 -8 -1 -15 4 -15 6 0 10 7 10 15 0 8 -2 15 -4 15 -2 0
-6 -7 -10 -15z"/>
<path d="M471 4193 c-1 -21 3 -23 54 -23 42 0 55 3 55 15 0 8 -4 15 -10 15 -5
0 -10 -4 -10 -10 0 -5 -18 -10 -39 -10 -29 0 -41 5 -44 18 -4 13 -5 11 -6 -5z"/>
<path d="M513 4203 c9 -2 23 -2 30 0 6 3 -1 5 -18 5 -16 0 -22 -2 -12 -5z"/>
<path d="M1011 4193 c-1 -21 3 -23 49 -23 41 0 50 3 49 18 0 10 -3 12 -6 5 -8
-21 -81 -16 -86 5 -4 13 -5 11 -6 -5z"/>
<path d="M1053 4203 c9 -2 23 -2 30 0 6 3 -1 5 -18 5 -16 0 -22 -2 -12 -5z"/>
<path d="M5960 4085 c0 -14 5 -25 10 -25 6 0 10 11 10 25 0 14 -4 25 -10 25
-5 0 -10 -11 -10 -25z"/>
<path d="M6030 4085 c0 -14 5 -25 10 -25 6 0 10 11 10 25 0 14 -4 25 -10 25
-5 0 -10 -11 -10 -25z"/>
<path d="M6110 4085 c0 -14 5 -25 10 -25 6 0 10 11 10 25 0 14 -4 25 -10 25
-5 0 -10 -11 -10 -25z"/>
<path d="M6220 4085 c0 -16 6 -25 15 -25 9 0 15 9 15 25 0 16 -6 25 -15 25 -9
0 -15 -9 -15 -25z"/>
<path d="M6650 4100 c0 -5 4 -10 9 -10 6 0 13 5 16 10 3 6 -1 10 -9 10 -9 0
-16 -4 -16 -10z"/>
<path d="M6730 4085 c0 -18 5 -25 20 -25 15 0 20 7 20 25 0 18 -5 25 -20 25
-15 0 -20 -7 -20 -25z"/>
<path d="M7120 4085 c0 -20 4 -26 18 -23 9 2 17 12 17 23 0 11 -8 21 -17 23
-14 3 -18 -3 -18 -23z"/>
<path d="M7550 3345 l0 -46 75 3 c41 2 75 4 75 5 0 15 -35 83 -42 83 -5 0 -16
-17 -25 -38 -12 -33 -19 -38 -39 -34 -20 4 -24 10 -24 38 0 19 -4 34 -10 34
-5 0 -10 -20 -10 -45z m115 -5 c3 -5 1 -10 -4 -10 -6 0 -11 5 -11 10 0 6 2 10
4 10 3 0 8 -4 11 -10z"/>
<path d="M7700 3385 c0 -19 35 -85 45 -85 10 0 35 60 35 84 0 17 -20 3 -28
-21 l-10 -28 -11 28 c-9 22 -31 39 -31 22z"/>
<path d="M7799 3347 l-15 -44 43 1 c34 1 42 4 37 16 -3 8 -11 27 -16 43 -14
39 -31 33 -49 -16z m36 -7 c3 -5 1 -10 -4 -10 -6 0 -11 5 -11 10 0 6 2 10 4
10 3 0 8 -4 11 -10z"/>
<path d="M7880 3346 c0 -25 5 -46 10 -46 6 0 10 7 10 15 0 8 4 15 9 15 5 0 11
-7 15 -15 11 -29 22 -15 22 28 -1 40 -3 42 -33 45 -33 3 -33 3 -33 -42z m50
14 c0 -5 -7 -10 -15 -10 -8 0 -15 5 -15 10 0 6 7 10 15 10 8 0 15 -4 15 -10z"/>
<path d="M1904 3366 c-8 -34 3 -79 19 -73 7 2 12 22 12 47 0 49 -21 66 -31 26z"/>
<path d="M2610 3365 c0 -18 5 -25 20 -25 25 0 38 29 19 41 -25 15 -39 10 -39
-16z"/>
<path d="M2752 3378 c-16 -16 -15 -63 2 -77 11 -9 18 -8 30 4 20 21 20 49 0
69 -19 19 -17 19 -32 4z"/>
<path d="M544 2900 c0 -52 1 -74 3 -47 2 26 2 68 0 95 -2 26 -3 4 -3 -48z"/>
<path d="M584 2900 c0 -52 1 -74 3 -47 2 26 2 68 0 95 -2 26 -3 4 -3 -48z"/>
<path d="M624 2900 c0 -52 1 -74 3 -47 2 26 2 68 0 95 -2 26 -3 4 -3 -48z"/>
<path d="M664 2900 c0 -52 1 -74 3 -47 2 26 2 68 0 95 -2 26 -3 4 -3 -48z"/>
<path d="M704 2900 c0 -52 1 -74 3 -47 2 26 2 68 0 95 -2 26 -3 4 -3 -48z"/>
<path d="M730 2906 c0 -47 5 -88 10 -91 6 -4 10 27 10 84 0 54 -4 91 -10 91
-6 0 -10 -35 -10 -84z"/>
<path d="M770 2906 c0 -47 5 -88 10 -91 6 -4 10 27 10 84 0 54 -4 91 -10 91
-6 0 -10 -35 -10 -84z"/>
<path d="M810 2899 c0 -57 4 -88 10 -84 6 3 10 44 10 91 0 49 -4 84 -10 84 -6
0 -10 -37 -10 -91z"/>
<path d="M850 2899 c0 -57 4 -88 10 -84 6 3 10 44 10 91 0 49 -4 84 -10 84 -6
0 -10 -37 -10 -91z"/>
<path d="M894 2900 c0 -52 1 -74 3 -47 2 26 2 68 0 95 -2 26 -3 4 -3 -48z"/>
<path d="M934 2900 c0 -52 1 -74 3 -47 2 26 2 68 0 95 -2 26 -3 4 -3 -48z"/>
<path d="M974 2900 c0 -52 1 -74 3 -47 2 26 2 68 0 95 -2 26 -3 4 -3 -48z"/>
<path d="M1014 2900 c0 -52 1 -74 3 -47 2 26 2 68 0 95 -2 26 -3 4 -3 -48z"/>
<path d="M1054 2900 c0 -52 1 -74 3 -47 2 26 2 68 0 95 -2 26 -3 4 -3 -48z"/>
<path d="M5805 2860 c-3 -5 -1 -10 4 -10 6 0 11 5 11 10 0 6 -2 10 -4 10 -3 0
-8 -4 -11 -10z"/>
<path d="M5990 2860 c0 -5 5 -10 10 -10 6 0 10 5 10 10 0 6 -4 10 -10 10 -5 0
-10 -4 -10 -10z"/>
<path d="M6376 2865 c-3 -8 -1 -15 4 -15 6 0 10 7 10 15 0 8 -2 15 -4 15 -2 0
-6 -7 -10 -15z"/>
<path d="M5100 2775 c-40 -41 -33 -61 8 -22 16 15 32 27 36 27 11 0 86 -75 86
-86 0 -4 -12 -20 -27 -36 -14 -15 -23 -31 -20 -35 9 -8 77 56 77 72 0 14 -102
115 -116 115 -5 0 -25 -16 -44 -35z"/>
<path d="M5120 2735 c0 -8 -4 -14 -9 -12 -8 2 -11 -3 -11 -20 0 -3 9 2 20 12
22 20 26 35 10 35 -5 0 -10 -7 -10 -15z"/>
<path d="M5166 2671 c-11 -12 -14 -21 -7 -26 10 -6 15 1 12 18 0 4 6 7 14 7 8
0 15 5 15 10 0 16 -15 12 -34 -9z"/>
<path d="M475 2758 c-22 -59 -61 -208 -55 -208 4 0 17 36 30 80 13 44 25 78
27 76 4 -4 -5 -43 -33 -138 -5 -17 17 -18 355 -18 199 0 361 1 361 3 0 1 -9
36 -20 76 -12 40 -19 75 -17 77 2 3 14 -32 27 -76 13 -44 26 -80 30 -80 5 0
-7 48 -24 108 l-32 107 -322 3 c-253 2 -324 0 -327 -10z m642 -23 c2 -11 0
-14 -3 -7 -8 17 -624 18 -624 0 0 -6 -3 -9 -6 -5 -4 3 -4 13 0 22 5 13 43 15
318 13 304 -3 313 -4 315 -23z m-550 -12 c-4 -3 -2 -12 4 -20 9 -10 3 -13 -34
-13 -40 0 -45 2 -40 20 4 15 14 20 41 20 19 0 32 -3 29 -7z m123 -13 c0 -16
-7 -20 -33 -20 -26 0 -33 4 -33 20 0 16 7 20 33 20 26 0 33 -4 33 -20z m83 0
c4 -17 0 -20 -34 -20 -26 0 -39 4 -39 13 0 20 10 27 41 27 18 0 28 -6 32 -20z
m120 0 c4 -17 0 -20 -33 -20 -33 0 -37 3 -33 20 4 14 14 20 33 20 19 0 29 -6
33 -20z m83 0 c0 -16 -7 -20 -33 -20 -26 0 -33 4 -33 20 0 16 7 20 33 20 26 0
33 -4 33 -20z m127 0 c5 -18 0 -20 -40 -20 -37 0 -43 3 -34 13 6 8 8 17 4 20
-3 4 10 7 29 7 27 0 37 -5 41 -20z m-86 4 c-3 -3 -12 -4 -19 -1 -8 3 -5 6 6 6
11 1 17 -2 13 -5z m-337 -59 c0 -23 -4 -25 -41 -25 -34 0 -39 3 -30 13 14 17
4 27 -25 27 -28 0 -42 -19 -23 -31 9 -6 -3 -9 -33 -9 -40 0 -48 3 -48 18 0 10
3 22 7 25 3 4 48 7 100 7 93 0 93 0 93 -25z m220 0 c0 -23 -3 -25 -47 -24 -27
0 -42 3 -35 6 25 10 12 33 -18 33 -30 0 -43 -23 -17 -33 6 -3 -12 -6 -42 -6
-44 -1 -52 2 -47 15 3 9 6 20 6 25 0 5 45 9 100 9 l100 0 0 -25z m214 9 c11
-30 6 -34 -41 -34 -31 0 -43 3 -34 9 19 12 5 31 -23 31 -29 0 -39 -10 -25 -27
9 -10 4 -13 -29 -13 -34 0 -40 3 -44 25 l-5 25 97 0 c80 0 99 -3 104 -16z
m-571 -74 c-5 -17 0 -20 27 -20 27 0 32 3 27 20 -4 17 0 20 34 20 35 0 39 -3
39 -25 l0 -25 -105 0 c-95 0 -105 2 -105 18 0 27 9 32 51 32 32 0 36 -3 32
-20z m230 0 c-5 -17 0 -20 27 -20 27 0 32 3 27 20 -5 18 0 20 38 20 38 0 43
-3 47 -25 l5 -25 -119 0 c-105 0 -119 2 -114 16 3 9 6 20 6 25 0 5 20 9 44 9
39 0 44 -2 39 -20z m230 0 c-5 -17 0 -20 27 -20 27 0 32 3 27 20 -4 17 0 20
33 20 36 0 50 -12 50 -41 0 -5 -47 -9 -105 -9 -58 0 -105 4 -105 9 0 5 -3 16
-6 25 -5 13 2 16 39 16 40 0 45 -2 40 -20z"/>
<path d="M2100 2657 c0 -78 3 -97 18 -110 10 -10 26 -17 35 -17 15 0 17 12 17
88 0 93 -8 115 -47 127 -23 6 -23 5 -23 -88z"/>
<path d="M1930 2495 l0 -135 120 0 120 0 0 80 c0 71 -2 80 -18 80 -31 0 -54
25 -61 66 l-6 39 -78 3 -77 3 0 -136z m140 89 c0 -37 15 -60 50 -74 29 -12 30
-15 30 -71 l0 -59 -100 0 -100 0 0 115 0 115 60 0 c58 0 60 -1 60 -26z"/>
<path d="M1976 2554 c-9 -22 12 -46 38 -42 15 2 21 10 21 28 0 20 -6 26 -26
28 -18 2 -29 -3 -33 -14z m44 -15 c0 -5 -7 -9 -15 -9 -15 0 -20 12 -9 23 8 8
24 -1 24 -14z"/>
<path d="M1974 2460 c0 -18 7 -20 76 -20 69 0 76 2 76 20 0 18 -7 20 -76 20
-69 0 -76 -2 -76 -20z"/>
<path d="M1975 2420 c3 -5 21 -10 40 -10 19 0 37 5 40 10 4 6 -12 10 -40 10
-28 0 -44 -4 -40 -10z"/>
<path d="M5730 2690 c0 -5 5 -10 10 -10 6 0 10 5 10 10 0 6 -4 10 -10 10 -5 0
-10 -4 -10 -10z"/>
<path d="M5910 2720 c0 -5 5 -10 10 -10 6 0 10 5 10 10 0 6 -4 10 -10 10 -5 0
-10 -4 -10 -10z"/>
<path d="M5910 2690 c0 -5 7 -10 16 -10 8 0 12 5 9 10 -3 6 -10 10 -16 10 -5
0 -9 -4 -9 -10z"/>
<path d="M5990 2705 c0 -20 4 -26 18 -23 9 2 17 12 17 23 0 11 -8 21 -17 23
-14 3 -18 -3 -18 -23z"/>
<path d="M6080 2720 c0 -5 7 -10 15 -10 8 0 15 5 15 10 0 6 -7 10 -15 10 -8 0
-15 -4 -15 -10z"/>
<path d="M6170 2720 c0 -5 4 -10 9 -10 6 0 13 5 16 10 3 6 -1 10 -9 10 -9 0
-16 -4 -16 -10z"/>
<path d="M6360 2700 c0 -5 5 -10 10 -10 6 0 10 5 10 10 0 6 -4 10 -10 10 -5 0
-10 -4 -10 -10z"/>
<path d="M6440 2705 c0 -16 6 -25 15 -25 9 0 15 9 15 25 0 16 -6 25 -15 25 -9
0 -15 -9 -15 -25z"/>
<path d="M6530 2705 c0 -16 6 -25 15 -25 9 0 15 9 15 25 0 16 -6 25 -15 25 -9
0 -15 -9 -15 -25z"/>
<path d="M6620 2720 c0 -5 7 -10 15 -10 8 0 15 5 15 10 0 6 -7 10 -15 10 -8 0
-15 -4 -15 -10z"/>
<path d="M3857 2664 c-13 -14 -7 -73 10 -90 16 -15 16 -17 0 -29 -21 -15 -12
-25 25 -25 28 0 39 15 16 23 -10 3 -10 9 0 29 8 13 12 40 10 59 -2 28 -8 35
-28 37 -14 2 -29 0 -33 -4z m43 -49 c0 -16 -6 -25 -15 -25 -9 0 -15 9 -15 25
0 16 6 25 15 25 9 0 15 -9 15 -25z"/>
<path d="M4047 2642 c-21 -23 -22 -36 -2 -28 11 4 15 -2 15 -24 0 -17 5 -30
10 -30 6 0 10 11 10 24 0 13 5 26 11 28 9 3 9 10 0 26 -14 27 -23 27 -44 4z"/>
<path d="M4131 2639 c-8 -14 -9 -24 -3 -28 5 -3 11 -14 13 -24 2 -10 9 -18 14
-18 6 0 12 8 14 18 2 10 8 21 13 24 12 7 -11 49 -27 49 -6 0 -16 -10 -24 -21z"/>
<path d="M4045 2530 c3 -5 21 -10 40 -10 19 0 37 5 40 10 4 6 -12 10 -40 10
-28 0 -44 -4 -40 -10z"/>
<path d="M4145 2530 c3 -5 13 -10 21 -10 8 0 14 5 14 10 0 6 -9 10 -21 10 -11
0 -17 -4 -14 -10z"/>
<path d="M3032 2573 c-31 -12 -55 -103 -32 -118 6 -4 10 8 10 29 0 38 28 76
55 76 24 0 55 -38 55 -68 0 -17 -10 -38 -25 -52 -21 -20 -28 -22 -50 -12 -29
14 -34 -2 -6 -18 28 -15 36 -13 70 16 72 60 8 182 -77 147z"/>
<path d="M4824 2567 c-3 -8 -4 -47 -2 -88 l3 -74 53 -3 c31 -2 52 1 52 7 0 6
-20 11 -45 11 l-45 0 0 70 0 70 45 0 c25 0 45 5 45 10 0 16 -100 12 -106 -3z"/>
<path d="M4985 2555 c-19 -18 -25 -35 -25 -65 0 -56 34 -90 90 -90 56 0 90 34
90 90 0 56 -34 90 -90 90 -30 0 -47 -6 -65 -25z m43 -6 c-22 -12 -24 -57 -3
-65 8 -4 15 -14 14 -23 0 -10 -2 -11 -6 -3 -7 17 -23 15 -23 -3 0 -7 8 -19 18
-24 9 -6 11 -11 5 -11 -23 0 -53 39 -53 70 0 31 30 70 53 70 6 0 4 -5 -5 -11z
m72 -9 c11 -11 20 -33 20 -50 0 -31 -30 -70 -52 -70 -7 0 -5 5 5 11 21 12 23
57 2 65 -8 4 -15 14 -14 23 0 10 2 11 6 4 7 -18 23 -16 23 2 0 7 -8 19 -17 24
-10 6 -12 11 -5 11 6 0 21 -9 32 -20z m-63 -32 c-3 -8 -6 -5 -6 6 -1 11 2 17
5 13 3 -3 4 -12 1 -19z m30 -50 c-3 -8 -6 -5 -6 6 -1 11 2 17 5 13 3 -3 4 -12
1 -19z"/>
<path d="M5170 2571 c0 -6 20 -11 45 -11 l45 0 0 -70 0 -70 -45 0 c-25 0 -45
-5 -45 -11 0 -6 21 -9 53 -7 l52 3 0 85 0 85 -52 3 c-32 2 -53 -1 -53 -7z"/>
<path d="M4880 2530 c0 -5 5 -10 10 -10 6 0 10 5 10 10 0 6 -4 10 -10 10 -5 0
-10 -4 -10 -10z"/>
<path d="M4915 2530 c3 -5 8 -10 11 -10 2 0 4 5 4 10 0 6 -5 10 -11 10 -5 0
-7 -4 -4 -10z"/>
<path d="M5170 2529 c0 -5 5 -7 10 -4 6 3 10 8 10 11 0 2 -4 4 -10 4 -5 0 -10
-5 -10 -11z"/>
<path d="M5200 2530 c0 -5 5 -10 10 -10 6 0 10 5 10 10 0 6 -4 10 -10 10 -5 0
-10 -4 -10 -10z"/>
<path d="M4880 2450 c0 -5 5 -10 10 -10 6 0 10 5 10 10 0 6 -4 10 -10 10 -5 0
-10 -4 -10 -10z"/>
<path d="M4910 2450 c0 -5 5 -10 10 -10 6 0 10 5 10 10 0 6 -4 10 -10 10 -5 0
-10 -4 -10 -10z"/>
<path d="M5170 2450 c0 -5 5 -10 10 -10 6 0 10 5 10 10 0 6 -4 10 -10 10 -5 0
-10 -4 -10 -10z"/>
<path d="M5200 2450 c0 -5 5 -10 10 -10 6 0 10 5 10 10 0 6 -4 10 -10 10 -5 0
-10 -4 -10 -10z"/>
<path d="M5800 2545 c0 -16 6 -25 15 -25 9 0 15 9 15 25 0 16 -6 25 -15 25 -9
0 -15 -9 -15 -25z"/>
<path d="M6076 2545 c-3 -8 -1 -15 4 -15 6 0 10 7 10 15 0 8 -2 15 -4 15 -2 0
-6 -7 -10 -15z"/>
<path d="M6290 2540 c0 -5 5 -10 10 -10 6 0 10 5 10 10 0 6 -4 10 -10 10 -5 0
-10 -4 -10 -10z"/>
<path d="M471 2493 c-1 -21 3 -23 54 -23 42 0 55 3 55 15 0 8 -4 15 -10 15 -5
0 -10 -4 -10 -10 0 -5 -18 -10 -39 -10 -29 0 -41 5 -44 18 -4 13 -5 11 -6 -5z"/>
<path d="M513 2503 c9 -2 23 -2 30 0 6 3 -1 5 -18 5 -16 0 -22 -2 -12 -5z"/>
<path d="M1011 2493 c-1 -21 3 -23 49 -23 41 0 50 3 49 18 0 10 -3 12 -6 5 -8
-21 -81 -16 -86 5 -4 13 -5 11 -6 -5z"/>
<path d="M1053 2503 c9 -2 23 -2 30 0 6 3 -1 5 -18 5 -16 0 -22 -2 -12 -5z"/>
<path d="M5880 2385 c0 -14 5 -25 10 -25 6 0 10 11 10 25 0 14 -4 25 -10 25
-5 0 -10 -11 -10 -25z"/>
<path d="M5960 2385 c0 -14 5 -25 10 -25 6 0 10 11 10 25 0 14 -4 25 -10 25
-5 0 -10 -11 -10 -25z"/>
<path d="M6030 2385 c0 -14 5 -25 10 -25 6 0 10 11 10 25 0 14 -4 25 -10 25
-5 0 -10 -11 -10 -25z"/>
<path d="M6110 2385 c0 -14 5 -25 10 -25 6 0 10 11 10 25 0 14 -4 25 -10 25
-5 0 -10 -11 -10 -25z"/>
<path d="M6220 2385 c0 -16 6 -25 15 -25 9 0 15 9 15 25 0 16 -6 25 -15 25 -9
0 -15 -9 -15 -25z"/>
<path d="M6650 2400 c0 -5 4 -10 9 -10 6 0 13 5 16 10 3 6 -1 10 -9 10 -9 0
-16 -4 -16 -10z"/>
<path d="M6730 2385 c0 -18 5 -25 20 -25 15 0 20 7 20 25 0 18 -5 25 -20 25
-15 0 -20 -7 -20 -25z"/>
<path d="M7120 2385 c0 -20 4 -26 18 -23 9 2 17 12 17 23 0 11 -8 21 -17 23
-14 3 -18 -3 -18 -23z"/>
<path d="M7550 1645 l0 -46 75 3 c41 2 75 4 75 5 0 15 -35 83 -42 83 -5 0 -16
-17 -25 -38 -12 -33 -19 -38 -39 -34 -20 4 -24 10 -24 38 0 19 -4 34 -10 34
-5 0 -10 -20 -10 -45z m115 -5 c3 -5 1 -10 -4 -10 -6 0 -11 5 -11 10 0 6 2 10
4 10 3 0 8 -4 11 -10z"/>
<path d="M7700 1685 c0 -19 35 -85 45 -85 10 0 35 60 35 84 0 17 -20 3 -28
-21 l-10 -28 -11 28 c-9 22 -31 39 -31 22z"/>
<path d="M7799 1647 l-15 -44 43 1 c34 1 42 4 37 16 -3 8 -11 27 -16 43 -14
39 -31 33 -49 -16z m36 -7 c3 -5 1 -10 -4 -10 -6 0 -11 5 -11 10 0 6 2 10 4
10 3 0 8 -4 11 -10z"/>
<path d="M7880 1646 c0 -25 5 -46 10 -46 6 0 10 7 10 15 0 8 4 15 9 15 5 0 11
-7 15 -15 11 -29 22 -15 22 28 -1 40 -3 42 -33 45 -33 3 -33 3 -33 -42z m50
14 c0 -5 -7 -10 -15 -10 -8 0 -15 5 -15 10 0 6 7 10 15 10 8 0 15 -4 15 -10z"/>
<path d="M1912 1678 c-16 -16 -15 -63 1 -77 19 -15 27 -4 27 40 0 41 -10 55
-28 37z"/>
<path d="M2027 1683 c-4 -3 -7 -23 -7 -43 0 -20 3 -40 7 -43 12 -12 33 15 33
43 0 28 -21 55 -33 43z"/>
<path d="M2730 1666 c0 -20 5 -26 21 -26 15 0 20 5 17 22 -5 34 -38 37 -38 4z"/>
<path d="M2866 1675 c-9 -9 -16 -25 -16 -35 0 -10 7 -26 16 -35 21 -21 44 -3
44 35 0 38 -23 56 -44 35z"/>
<path d="M544 1200 c0 -52 1 -74 3 -47 2 26 2 68 0 95 -2 26 -3 4 -3 -48z"/>
<path d="M584 1200 c0 -52 1 -74 3 -47 2 26 2 68 0 95 -2 26 -3 4 -3 -48z"/>
<path d="M624 1200 c0 -52 1 -74 3 -47 2 26 2 68 0 95 -2 26 -3 4 -3 -48z"/>
<path d="M664 1200 c0 -52 1 -74 3 -47 2 26 2 68 0 95 -2 26 -3 4 -3 -48z"/>
<path d="M704 1200 c0 -52 1 -74 3 -47 2 26 2 68 0 95 -2 26 -3 4 -3 -48z"/>
<path d="M730 1206 c0 -47 5 -88 10 -91 6 -4 10 27 10 84 0 54 -4 91 -10 91
-6 0 -10 -35 -10 -84z"/>
<path d="M770 1206 c0 -47 5 -88 10 -91 6 -4 10 27 10 84 0 54 -4 91 -10 91
-6 0 -10 -35 -10 -84z"/>
<path d="M810 1199 c0 -57 4 -88 10 -84 6 3 10 44 10 91 0 49 -4 84 -10 84 -6
0 -10 -37 -10 -91z"/>
<path d="M850 1199 c0 -57 4 -88 10 -84 6 3 10 44 10 91 0 49 -4 84 -10 84 -6
0 -10 -37 -10 -91z"/>
<path d="M894 1200 c0 -52 1 -74 3 -47 2 26 2 68 0 95 -2 26 -3 4 -3 -48z"/>
<path d="M934 1200 c0 -52 1 -74 3 -47 2 26 2 68 0 95 -2 26 -3 4 -3 -48z"/>
<path d="M974 1200 c0 -52 1 -74 3 -47 2 26 2 68 0 95 -2 26 -3 4 -3 -48z"/>
<path d="M1014 1200 c0 -52 1 -74 3 -47 2 26 2 68 0 95 -2 26 -3 4 -3 -48z"/>
<path d="M1054 1200 c0 -52 1 -74 3 -47 2 26 2 68 0 95 -2 26 -3 4 -3 -48z"/>
<path d="M5990 1160 c0 -5 5 -10 11 -10 5 0 7 5 4 10 -3 6 -8 10 -11 10 -2 0
-4 -4 -4 -10z"/>
<path d="M6375 1160 c-3 -5 -1 -10 4 -10 6 0 11 5 11 10 0 6 -2 10 -4 10 -3 0
-8 -4 -11 -10z"/>
<path d="M5100 1075 c-40 -41 -33 -61 8 -22 16 15 32 27 36 27 11 0 86 -75 86
-86 0 -4 -12 -20 -27 -36 -14 -15 -23 -31 -20 -35 9 -8 77 56 77 72 0 14 -102
115 -116 115 -5 0 -25 -16 -44 -35z"/>
<path d="M5120 1035 c0 -8 -4 -14 -9 -12 -8 2 -11 -3 -11 -20 0 -3 9 2 20 12
22 20 26 35 10 35 -5 0 -10 -7 -10 -15z"/>
<path d="M5166 971 c-11 -12 -14 -21 -7 -26 10 -6 15 1 12 18 0 4 6 7 14 7 8
0 15 5 15 10 0 16 -15 12 -34 -9z"/>
<path d="M475 1058 c-22 -59 -61 -208 -55 -208 4 0 17 36 30 80 13 44 25 78
27 76 4 -4 -5 -43 -33 -138 -5 -17 17 -18 355 -18 199 0 361 1 361 3 0 1 -9
36 -20 76 -12 40 -19 75 -17 77 2 3 14 -32 27 -76 13 -44 26 -80 30 -80 5 0
-7 48 -24 108 l-32 107 -322 3 c-253 2 -324 0 -327 -10z m642 -23 c2 -11 0
-14 -3 -7 -8 17 -624 18 -624 0 0 -6 -3 -9 -6 -5 -4 3 -4 13 0 22 5 13 43 15
318 13 304 -3 313 -4 315 -23z m-550 -12 c-4 -3 -2 -12 4 -20 9 -10 3 -13 -34
-13 -40 0 -45 2 -40 20 4 15 14 20 41 20 19 0 32 -3 29 -7z m123 -13 c0 -16
-7 -20 -33 -20 -26 0 -33 4 -33 20 0 16 7 20 33 20 26 0 33 -4 33 -20z m83 0
c4 -17 0 -20 -34 -20 -26 0 -39 4 -39 13 0 20 10 27 41 27 18 0 28 -6 32 -20z
m120 0 c4 -17 0 -20 -33 -20 -33 0 -37 3 -33 20 4 14 14 20 33 20 19 0 29 -6
33 -20z m83 0 c0 -16 -7 -20 -33 -20 -26 0 -33 4 -33 20 0 16 7 20 33 20 26 0
33 -4 33 -20z m127 0 c5 -18 0 -20 -40 -20 -37 0 -43 3 -34 13 6 8 8 17 4 20
-3 4 10 7 29 7 27 0 37 -5 41 -20z m-86 4 c-3 -3 -12 -4 -19 -1 -8 3 -5 6 6 6
11 1 17 -2 13 -5z m-337 -59 c0 -23 -4 -25 -41 -25 -34 0 -39 3 -30 13 14 17
4 27 -25 27 -28 0 -42 -19 -23 -31 9 -6 -3 -9 -33 -9 -40 0 -48 3 -48 18 0 10
3 22 7 25 3 4 48 7 100 7 93 0 93 0 93 -25z m220 0 c0 -23 -3 -25 -47 -24 -27
0 -42 3 -35 6 25 10 12 33 -18 33 -30 0 -43 -23 -17 -33 6 -3 -12 -6 -42 -6
-44 -1 -52 2 -47 15 3 9 6 20 6 25 0 5 45 9 100 9 l100 0 0 -25z m214 9 c11
-30 6 -34 -41 -34 -31 0 -43 3 -34 9 19 12 5 31 -23 31 -29 0 -39 -10 -25 -27
9 -10 4 -13 -29 -13 -34 0 -40 3 -44 25 l-5 25 97 0 c80 0 99 -3 104 -16z
m-571 -74 c-5 -17 0 -20 27 -20 27 0 32 3 27 20 -4 17 0 20 34 20 35 0 39 -3
39 -25 l0 -25 -105 0 c-95 0 -105 2 -105 18 0 27 9 32 51 32 32 0 36 -3 32
-20z m230 0 c-5 -17 0 -20 27 -20 27 0 32 3 27 20 -5 18 0 20 38 20 38 0 43
-3 47 -25 l5 -25 -119 0 c-105 0 -119 2 -114 16 3 9 6 20 6 25 0 5 20 9 44 9
39 0 44 -2 39 -20z m230 0 c-5 -17 0 -20 27 -20 27 0 32 3 27 20 -4 17 0 20
33 20 36 0 50 -12 50 -41 0 -5 -47 -9 -105 -9 -58 0 -105 4 -105 9 0 5 -3 16
-6 25 -5 13 2 16 39 16 40 0 45 -2 40 -20z"/>
<path d="M2100 957 c0 -78 3 -97 18 -110 10 -10 26 -17 35 -17 15 0 17 12 17
88 0 93 -8 115 -47 127 -23 6 -23 5 -23 -88z"/>
<path d="M1930 795 l0 -135 120 0 120 0 0 80 c0 71 -2 80 -18 80 -31 0 -54 25
-61 66 l-6 39 -78 3 -77 3 0 -136z m140 89 c0 -37 15 -60 50 -74 29 -12 30
-15 30 -71 l0 -59 -100 0 -100 0 0 115 0 115 60 0 c58 0 60 -1 60 -26z"/>
<path d="M1976 854 c-9 -22 12 -46 38 -42 15 2 21 10 21 28 0 20 -6 26 -26 28
-18 2 -29 -3 -33 -14z m44 -15 c0 -5 -7 -9 -15 -9 -15 0 -20 12 -9 23 8 8 24
-1 24 -14z"/>
<path d="M1974 760 c0 -18 7 -20 76 -20 69 0 76 2 76 20 0 18 -7 20 -76 20
-69 0 -76 -2 -76 -20z"/>
<path d="M1975 720 c3 -5 21 -10 40 -10 19 0 37 5 40 10 4 6 -12 10 -40 10
-28 0 -44 -4 -40 -10z"/>
<path d="M5725 1020 c3 -5 10 -10 16 -10 5 0 9 5 9 10 0 6 -7 10 -16 10 -8 0
-12 -4 -9 -10z"/>
<path d="M5910 1020 c0 -5 5 -10 10 -10 6 0 10 5 10 10 0 6 -4 10 -10 10 -5 0
-10 -4 -10 -10z"/>
<path d="M5910 990 c0 -5 7 -10 16 -10 8 0 12 5 9 10 -3 6 -10 10 -16 10 -5 0
-9 -4 -9 -10z"/>
<path d="M5990 1005 c0 -20 4 -26 18 -23 9 2 17 12 17 23 0 11 -8 21 -17 23
-14 3 -18 -3 -18 -23z"/>
<path d="M6080 1020 c0 -5 7 -10 15 -10 8 0 15 5 15 10 0 6 -7 10 -15 10 -8 0
-15 -4 -15 -10z"/>
<path d="M6170 1020 c0 -5 4 -10 9 -10 6 0 13 5 16 10 3 6 -1 10 -9 10 -9 0
-16 -4 -16 -10z"/>
<path d="M6360 1000 c0 -5 5 -10 10 -10 6 0 10 5 10 10 0 6 -4 10 -10 10 -5 0
-10 -4 -10 -10z"/>
<path d="M6440 1005 c0 -16 6 -25 15 -25 9 0 15 9 15 25 0 16 -6 25 -15 25 -9
0 -15 -9 -15 -25z"/>
<path d="M6530 1005 c0 -16 6 -25 15 -25 9 0 15 9 15 25 0 16 -6 25 -15 25 -9
0 -15 -9 -15 -25z"/>
<path d="M6620 1020 c0 -5 7 -10 15 -10 8 0 15 5 15 10 0 6 -7 10 -15 10 -8 0
-15 -4 -15 -10z"/>
<path d="M3857 964 c-13 -14 -7 -73 10 -90 16 -15 16 -17 0 -29 -21 -15 -12
-25 25 -25 28 0 39 15 16 23 -10 3 -10 9 0 29 8 13 12 40 10 59 -2 28 -8 35
-28 37 -14 2 -29 0 -33 -4z m43 -49 c0 -16 -6 -25 -15 -25 -9 0 -15 9 -15 25
0 16 6 25 15 25 9 0 15 -9 15 -25z"/>
<path d="M4047 942 c-21 -23 -22 -36 -2 -28 11 4 15 -2 15 -24 0 -17 5 -30 10
-30 6 0 10 11 10 24 0 13 5 26 11 28 9 3 9 10 0 26 -14 27 -23 27 -44 4z"/>
<path d="M4131 939 c-8 -14 -9 -24 -3 -28 5 -3 11 -14 13 -24 2 -10 9 -18 14
-18 6 0 12 8 14 18 2 10 8 21 13 24 12 7 -11 49 -27 49 -6 0 -16 -10 -24 -21z"/>
<path d="M4045 830 c3 -5 21 -10 40 -10 19 0 37 5 40 10 4 6 -12 10 -40 10
-28 0 -44 -4 -40 -10z"/>
<path d="M4145 830 c3 -5 13 -10 21 -10 8 0 14 5 14 10 0 6 -9 10 -21 10 -11
0 -17 -4 -14 -10z"/>
<path d="M3032 873 c-31 -12 -55 -103 -32 -118 6 -4 10 8 10 29 0 38 28 76 55
76 24 0 55 -38 55 -68 0 -17 -10 -38 -25 -52 -21 -20 -28 -22 -50 -12 -29 14
-34 -2 -6 -18 28 -15 36 -13 70 16 72 60 8 182 -77 147z"/>
<path d="M4824 867 c-3 -8 -4 -47 -2 -88 l3 -74 53 -3 c31 -2 52 1 52 7 0 6
-20 11 -45 11 l-45 0 0 70 0 70 45 0 c25 0 45 5 45 10 0 16 -100 12 -106 -3z"/>
<path d="M4985 855 c-19 -18 -25 -35 -25 -65 0 -56 34 -90 90 -90 56 0 90 34
90 90 0 56 -34 90 -90 90 -30 0 -47 -6 -65 -25z m43 -6 c-22 -12 -24 -57 -3
-65 8 -4 15 -14 14 -23 0 -10 -2 -11 -6 -3 -7 17 -23 15 -23 -3 0 -7 8 -19 18
-24 9 -6 11 -11 5 -11 -23 0 -53 39 -53 70 0 31 30 70 53 70 6 0 4 -5 -5 -11z
m72 -9 c11 -11 20 -33 20 -50 0 -31 -30 -70 -52 -70 -7 0 -5 5 5 11 21 12 23
57 2 65 -8 4 -15 14 -14 23 0 10 2 11 6 4 7 -18 23 -16 23 2 0 7 -8 19 -17 24
-10 6 -12 11 -5 11 6 0 21 -9 32 -20z m-63 -32 c-3 -8 -6 -5 -6 6 -1 11 2 17
5 13 3 -3 4 -12 1 -19z m30 -50 c-3 -8 -6 -5 -6 6 -1 11 2 17 5 13 3 -3 4 -12
1 -19z"/>
<path d="M5170 871 c0 -6 20 -11 45 -11 l45 0 0 -70 0 -70 -45 0 c-25 0 -45
-5 -45 -11 0 -6 21 -9 53 -7 l52 3 0 85 0 85 -52 3 c-32 2 -53 -1 -53 -7z"/>
<path d="M4880 830 c0 -5 5 -10 10 -10 6 0 10 5 10 10 0 6 -4 10 -10 10 -5 0
-10 -4 -10 -10z"/>
<path d="M4915 830 c3 -5 8 -10 11 -10 2 0 4 5 4 10 0 6 -5 10 -11 10 -5 0 -7
-4 -4 -10z"/>
<path d="M5170 829 c0 -5 5 -7 10 -4 6 3 10 8 10 11 0 2 -4 4 -10 4 -5 0 -10
-5 -10 -11z"/>
<path d="M5200 830 c0 -5 5 -10 10 -10 6 0 10 5 10 10 0 6 -4 10 -10 10 -5 0
-10 -4 -10 -10z"/>
<path d="M4880 750 c0 -5 5 -10 10 -10 6 0 10 5 10 10 0 6 -4 10 -10 10 -5 0
-10 -4 -10 -10z"/>
<path d="M4910 750 c0 -5 5 -10 10 -10 6 0 10 5 10 10 0 6 -4 10 -10 10 -5 0
-10 -4 -10 -10z"/>
<path d="M5170 750 c0 -5 5 -10 10 -10 6 0 10 5 10 10 0 6 -4 10 -10 10 -5 0
-10 -4 -10 -10z"/>
<path d="M5200 750 c0 -5 5 -10 10 -10 6 0 10 5 10 10 0 6 -4 10 -10 10 -5 0
-10 -4 -10 -10z"/>
<path d="M6076 845 c-3 -8 -1 -15 4 -15 6 0 10 7 10 15 0 8 -2 15 -4 15 -2 0
-6 -7 -10 -15z"/>
<path d="M6290 840 c0 -5 5 -10 10 -10 6 0 10 5 10 10 0 6 -4 10 -10 10 -5 0
-10 -4 -10 -10z"/>
<path d="M471 793 c-1 -21 3 -23 54 -23 42 0 55 3 55 15 0 8 -4 15 -10 15 -5
0 -10 -4 -10 -10 0 -5 -18 -10 -39 -10 -29 0 -41 5 -44 18 -4 13 -5 11 -6 -5z"/>
<path d="M513 803 c9 -2 23 -2 30 0 6 3 -1 5 -18 5 -16 0 -22 -2 -12 -5z"/>
<path d="M1011 793 c-1 -21 3 -23 49 -23 41 0 50 3 49 18 0 10 -3 12 -6 5 -8
-21 -81 -16 -86 5 -4 13 -5 11 -6 -5z"/>
<path d="M1053 803 c9 -2 23 -2 30 0 6 3 -1 5 -18 5 -16 0 -22 -2 -12 -5z"/>
<path d="M5880 685 c0 -14 5 -25 10 -25 6 0 10 11 10 25 0 14 -4 25 -10 25 -5
0 -10 -11 -10 -25z"/>
<path d="M5960 685 c0 -14 5 -25 10 -25 6 0 10 11 10 25 0 14 -4 25 -10 25 -5
0 -10 -11 -10 -25z"/>
<path d="M6030 685 c0 -14 5 -25 10 -25 6 0 10 11 10 25 0 14 -4 25 -10 25 -5
0 -10 -11 -10 -25z"/>
<path d="M6110 685 c0 -14 5 -25 10 -25 6 0 10 11 10 25 0 14 -4 25 -10 25 -5
0 -10 -11 -10 -25z"/>
<path d="M6190 685 c0 -14 5 -25 10 -25 6 0 10 11 10 25 0 14 -4 25 -10 25 -5
0 -10 -11 -10 -25z"/>
<path d="M6300 685 c0 -17 5 -25 13 -22 6 2 12 12 12 22 0 10 -6 20 -12 23 -8
2 -13 -6 -13 -23z"/>
<path d="M6720 700 c0 -5 7 -10 15 -10 8 0 15 5 15 10 0 6 -7 10 -15 10 -8 0
-15 -4 -15 -10z"/>
<path d="M6810 685 c0 -16 6 -25 15 -25 9 0 15 9 15 25 0 16 -6 25 -15 25 -9
0 -15 -9 -15 -25z"/>
<path d="M7200 685 c0 -16 6 -25 15 -25 9 0 15 9 15 25 0 16 -6 25 -15 25 -9
0 -15 -9 -15 -25z"/>
</g>
</svg>
